<svg id="svg" version="1.1" xmlns="http://www.w3.org/2000/svg" xmlns:xlink="http://www.w3.org/1999/xlink" width="400" height="69.18445539135195" viewBox="0, 0, 400,69.18445539135195"><g id="svgg"><path id="path0" d="M29.083 0.291 C 28.717 0.442,28.322 0.658,28.207 0.772 C 28.092 0.885,27.848 1.026,27.666 1.084 C 27.483 1.142,27.333 1.251,27.333 1.326 C 27.333 1.402,27.151 1.510,26.928 1.566 C 26.706 1.621,26.416 1.774,26.286 1.905 C 26.155 2.035,25.794 2.263,25.483 2.411 C 24.388 2.931,23.582 3.374,23.500 3.501 C 23.454 3.571,23.154 3.750,22.833 3.898 C 22.512 4.045,22.025 4.313,21.750 4.492 C 21.475 4.672,20.987 4.950,20.667 5.111 C 20.346 5.272,19.984 5.501,19.863 5.619 C 19.742 5.737,19.579 5.833,19.500 5.833 C 19.421 5.833,19.258 5.928,19.137 6.045 C 19.016 6.161,18.598 6.397,18.208 6.570 C 17.819 6.743,17.500 6.942,17.500 7.012 C 17.500 7.083,17.270 7.191,16.989 7.252 C 16.708 7.314,16.441 7.459,16.397 7.575 C 16.352 7.691,16.020 7.883,15.658 8.003 C 15.296 8.122,15.000 8.282,15.000 8.358 C 15.000 8.434,14.756 8.605,14.458 8.739 C 13.897 8.991,12.979 9.517,12.833 9.671 C 12.787 9.720,12.431 9.900,12.042 10.072 C 11.652 10.243,11.333 10.448,11.333 10.525 C 11.333 10.603,11.263 10.667,11.178 10.667 C 11.018 10.667,9.316 11.668,9.167 11.850 C 9.121 11.906,8.802 12.043,8.458 12.155 C 8.115 12.267,7.833 12.419,7.833 12.493 C 7.833 12.566,7.590 12.725,7.292 12.845 C 6.994 12.966,6.712 13.112,6.667 13.171 C 6.586 13.274,4.896 14.223,3.625 14.879 C 3.281 15.056,3.000 15.257,3.000 15.324 C 3.000 15.391,2.704 15.544,2.342 15.664 C 1.980 15.783,1.645 15.983,1.597 16.107 C 1.550 16.232,1.401 16.333,1.268 16.333 C 1.135 16.333,0.795 16.528,0.513 16.765 L 0.000 17.196 0.000 34.440 C -0.000 53.478,-0.064 52.383,1.069 52.828 C 1.398 52.957,1.667 53.115,1.667 53.180 C 1.667 53.244,1.849 53.343,2.072 53.399 C 2.294 53.455,2.584 53.607,2.714 53.738 C 2.845 53.868,3.206 54.095,3.517 54.241 C 4.195 54.558,5.051 55.046,5.167 55.180 C 5.212 55.233,5.494 55.383,5.792 55.512 C 6.090 55.642,6.333 55.793,6.333 55.849 C 6.333 55.904,6.671 56.089,7.083 56.259 C 7.496 56.429,7.833 56.619,7.833 56.681 C 7.833 56.742,8.058 56.886,8.333 57.000 C 8.608 57.114,8.833 57.267,8.833 57.340 C 8.833 57.414,9.063 57.524,9.345 57.586 C 9.626 57.648,9.892 57.793,9.937 57.909 C 9.981 58.024,10.313 58.217,10.675 58.336 C 11.037 58.456,11.333 58.609,11.333 58.676 C 11.333 58.743,11.615 58.942,11.958 59.118 C 13.139 59.722,14.917 60.714,15.000 60.815 C 15.046 60.871,15.346 61.048,15.667 61.210 C 15.987 61.371,16.550 61.691,16.917 61.922 C 17.283 62.152,17.771 62.432,18.000 62.543 C 18.229 62.655,18.516 62.841,18.637 62.956 C 18.758 63.072,19.039 63.212,19.262 63.268 C 19.484 63.324,19.667 63.429,19.667 63.502 C 19.667 63.574,20.004 63.772,20.416 63.942 C 20.828 64.111,21.166 64.297,21.166 64.355 C 21.166 64.412,21.392 64.553,21.667 64.667 C 21.942 64.781,22.167 64.926,22.167 64.989 C 22.167 65.053,22.429 65.207,22.750 65.333 C 23.071 65.459,23.333 65.615,23.333 65.680 C 23.333 65.744,23.516 65.843,23.738 65.899 C 23.961 65.955,24.242 66.095,24.363 66.210 C 24.484 66.325,25.141 66.708,25.822 67.061 C 26.503 67.414,27.164 67.807,27.292 67.935 C 27.419 68.062,27.619 68.167,27.736 68.167 C 27.853 68.167,28.121 68.316,28.332 68.499 C 29.237 69.284,31.281 69.339,31.917 68.596 C 32.008 68.489,32.346 68.296,32.667 68.168 C 32.987 68.040,33.287 67.888,33.333 67.831 C 33.411 67.734,34.550 67.078,37.064 65.685 C 37.625 65.374,38.121 65.070,38.167 65.009 C 38.212 64.948,38.494 64.799,38.792 64.679 C 39.090 64.558,39.333 64.408,39.333 64.345 C 39.333 64.282,39.652 64.092,40.042 63.922 C 40.431 63.752,40.787 63.569,40.833 63.515 C 40.950 63.377,41.809 62.872,42.500 62.535 C 42.821 62.378,43.182 62.156,43.303 62.042 C 43.424 61.927,43.706 61.788,43.928 61.732 C 44.151 61.676,44.333 61.564,44.333 61.482 C 44.333 61.400,44.403 61.333,44.489 61.333 C 44.636 61.333,46.321 60.352,46.500 60.163 C 46.546 60.114,46.902 59.934,47.292 59.762 C 47.681 59.590,48.000 59.394,48.000 59.326 C 48.000 59.258,48.182 59.157,48.405 59.101 C 48.628 59.045,48.912 58.906,49.038 58.791 C 49.262 58.586,49.937 58.193,50.917 57.696 C 51.192 57.557,51.454 57.399,51.500 57.346 C 51.546 57.293,51.808 57.137,52.083 57.000 C 52.358 56.863,52.621 56.713,52.667 56.667 C 52.768 56.566,53.678 56.066,54.572 55.622 C 54.933 55.443,55.332 55.192,55.459 55.065 C 55.586 54.937,55.794 54.833,55.920 54.833 C 56.047 54.833,56.210 54.731,56.283 54.607 C 56.357 54.482,56.691 54.291,57.027 54.182 C 57.363 54.073,57.676 53.882,57.724 53.758 C 57.772 53.633,58.041 53.481,58.322 53.419 C 58.603 53.357,58.833 53.247,58.833 53.174 C 58.833 53.100,59.061 52.946,59.339 52.831 C 60.598 52.309,60.500 53.858,60.500 34.508 L 60.500 17.227 60.072 16.855 C 59.837 16.650,59.462 16.399,59.239 16.298 C 59.016 16.196,58.833 16.058,58.833 15.991 C 58.833 15.924,58.648 15.823,58.421 15.766 C 58.194 15.709,57.734 15.476,57.398 15.248 C 57.062 15.020,56.685 14.833,56.560 14.833 C 56.435 14.833,56.333 14.768,56.333 14.688 C 56.333 14.609,55.753 14.252,55.044 13.897 C 54.334 13.541,53.659 13.161,53.543 13.053 C 53.426 12.944,53.182 12.808,52.999 12.750 C 52.816 12.692,52.667 12.582,52.667 12.507 C 52.667 12.431,52.484 12.324,52.262 12.268 C 52.039 12.212,51.758 12.068,51.637 11.948 C 51.516 11.828,51.192 11.615,50.917 11.474 C 49.912 10.958,49.260 10.579,49.051 10.388 C 48.933 10.281,48.573 10.107,48.252 10.001 C 47.930 9.894,47.667 9.747,47.667 9.674 C 47.667 9.601,47.423 9.442,47.125 9.321 C 46.827 9.201,46.546 9.060,46.500 9.009 C 46.343 8.833,44.645 7.833,44.503 7.833 C 44.425 7.833,44.336 7.777,44.306 7.708 C 44.275 7.640,43.956 7.433,43.597 7.250 C 42.093 6.482,41.746 6.288,41.667 6.170 C 41.621 6.103,41.302 5.946,40.958 5.823 C 40.615 5.700,40.333 5.549,40.333 5.487 C 40.333 5.425,40.108 5.281,39.833 5.167 C 39.558 5.053,39.333 4.899,39.333 4.824 C 39.333 4.749,39.071 4.593,38.750 4.477 C 38.429 4.361,38.167 4.211,38.167 4.144 C 38.167 4.077,37.904 3.927,37.583 3.811 C 37.262 3.695,37.000 3.545,37.000 3.478 C 37.000 3.411,36.844 3.306,36.652 3.245 C 36.221 3.109,34.603 2.129,34.528 1.958 C 34.497 1.890,34.376 1.833,34.259 1.833 C 34.142 1.833,33.772 1.647,33.436 1.419 C 33.100 1.191,32.639 0.958,32.412 0.901 C 32.186 0.844,32.000 0.739,32.000 0.668 C 32.000 0.103,30.129 -0.139,29.083 0.291 M35.061 18.889 C 35.003 19.317,34.899 19.667,34.831 19.667 C 34.763 19.667,34.612 20.285,34.496 21.042 C 34.380 21.798,34.226 22.455,34.155 22.502 C 34.083 22.549,33.928 23.205,33.809 23.960 C 33.690 24.716,33.545 25.333,33.487 25.333 C 33.428 25.333,33.283 25.915,33.163 26.625 C 33.043 27.335,32.875 27.963,32.789 28.020 C 32.703 28.077,32.592 28.772,32.543 29.564 L 32.453 31.004 35.643 34.182 C 37.398 35.930,38.833 37.391,38.833 37.429 C 38.833 37.467,38.496 37.840,38.083 38.259 C 37.671 38.677,37.333 39.062,37.333 39.114 C 37.333 39.165,34.660 41.880,31.392 45.146 L 25.451 51.083 25.574 50.250 C 25.642 49.792,25.764 49.336,25.846 49.237 C 25.927 49.138,26.079 48.482,26.184 47.778 C 26.288 47.075,26.428 46.500,26.493 46.500 C 26.559 46.500,26.712 45.862,26.833 45.083 C 26.955 44.304,27.105 43.667,27.167 43.667 C 27.229 43.667,27.415 42.877,27.580 41.912 C 27.746 40.947,27.945 40.117,28.024 40.069 C 28.102 40.020,28.164 39.554,28.162 39.032 L 28.157 38.083 26.317 36.333 C 22.146 32.366,21.653 31.837,21.876 31.562 C 21.990 31.421,23.921 29.444,26.167 27.168 C 32.238 21.014,32.667 20.565,32.667 20.358 C 32.667 20.253,32.729 20.167,32.805 20.167 C 32.881 20.167,33.424 19.688,34.013 19.103 C 35.252 17.872,35.199 17.883,35.061 18.889 " stroke="none" fill="#7c2ce4" fill-rule="evenodd"></path><path id="path1" d="M233.500 36.667 L 233.500 51.167 242.667 51.167 L 251.833 51.167 251.833 48.500 L 251.833 45.833 245.417 45.833 L 239.000 45.833 239.000 34.000 L 239.000 22.167 236.250 22.167 L 233.500 22.167 233.500 36.667 M255.167 24.912 L 255.167 27.667 257.837 27.667 L 260.508 27.667 260.462 24.958 L 260.417 22.250 257.792 22.204 L 255.167 22.158 255.167 24.912 M287.833 36.663 L 287.833 51.167 290.574 51.167 L 293.315 51.167 293.366 44.792 L 293.417 38.417 293.908 37.524 C 294.178 37.033,294.516 36.588,294.658 36.536 C 294.800 36.484,294.975 36.345,295.046 36.228 C 295.117 36.110,295.455 35.969,295.796 35.914 C 296.137 35.860,296.548 35.744,296.708 35.656 C 296.893 35.555,297.107 35.555,297.292 35.656 C 297.452 35.744,297.861 35.859,298.200 35.914 C 298.759 36.003,299.392 36.489,300.111 37.381 C 300.586 37.971,300.665 39.060,300.666 45.042 L 300.667 51.167 303.425 51.167 L 306.182 51.167 306.133 43.577 C 306.098 38.308,306.027 35.951,305.901 35.869 C 305.800 35.803,305.666 35.525,305.603 35.250 C 305.427 34.480,305.142 33.833,304.980 33.833 C 304.899 33.833,304.832 33.740,304.831 33.625 C 304.827 33.296,303.311 31.923,302.667 31.665 C 302.346 31.536,301.993 31.343,301.883 31.235 C 301.773 31.128,301.398 30.987,301.050 30.921 C 300.702 30.856,300.367 30.721,300.306 30.622 C 300.152 30.373,296.362 30.353,296.202 30.601 C 296.137 30.702,295.690 30.878,295.208 30.992 C 294.727 31.107,294.333 31.255,294.333 31.323 C 294.333 31.431,293.607 31.833,293.411 31.833 C 293.371 31.833,293.319 29.677,293.294 27.042 L 293.250 22.250 290.542 22.204 L 287.833 22.158 287.833 36.663 M348.500 24.917 L 348.500 27.667 351.167 27.667 L 353.833 27.667 353.833 24.917 L 353.833 22.167 351.167 22.167 L 348.500 22.167 348.500 24.917 M80.500 36.655 C 80.500 49.301,80.528 50.837,80.762 51.071 C 80.977 51.287,81.480 51.333,83.595 51.333 L 86.167 51.333 86.167 46.750 L 86.167 42.167 89.667 42.167 C 91.889 42.167,93.167 42.106,93.167 42.000 C 93.167 41.908,93.388 41.833,93.658 41.833 C 94.904 41.833,96.646 41.209,98.069 40.253 C 98.646 39.865,100.167 38.345,100.167 38.156 C 100.167 38.083,100.265 37.925,100.386 37.804 C 101.898 36.283,102.368 30.286,101.154 28.019 C 100.977 27.691,100.833 27.324,100.833 27.206 C 100.833 27.087,100.721 26.946,100.583 26.894 C 100.446 26.841,100.333 26.715,100.333 26.613 C 100.333 26.424,100.103 26.154,99.136 25.211 C 98.279 24.376,98.019 24.168,97.577 23.967 C 97.351 23.864,97.167 23.717,97.167 23.640 C 97.167 23.563,97.078 23.500,96.969 23.500 C 96.861 23.500,96.467 23.357,96.094 23.181 C 94.802 22.574,93.822 22.500,87.075 22.500 L 80.500 22.500 80.500 36.655 M120.333 25.083 L 120.333 27.667 125.167 27.667 L 130.000 27.667 130.000 39.500 L 130.000 51.333 132.667 51.333 L 135.333 51.333 135.333 39.500 L 135.333 27.667 140.167 27.667 L 145.000 27.667 145.000 25.083 L 145.000 22.500 132.667 22.500 L 120.333 22.500 120.333 25.083 M200.667 36.917 L 200.667 51.333 203.182 51.333 C 205.558 51.333,205.703 51.315,205.785 51.000 C 205.833 50.817,205.938 50.667,206.019 50.667 C 206.102 50.667,206.167 48.079,206.168 44.792 C 206.169 37.735,206.189 37.626,207.716 36.389 C 209.372 35.048,212.953 36.188,213.268 38.157 C 213.327 38.529,213.441 38.833,213.521 38.833 C 213.601 38.833,213.674 41.440,213.683 44.625 C 213.692 47.810,213.752 50.604,213.816 50.833 L 213.931 51.250 216.466 51.296 L 219.000 51.342 218.995 44.629 C 218.990 37.738,218.863 35.673,218.420 35.230 C 218.281 35.090,218.167 34.847,218.167 34.689 C 218.167 34.408,217.865 33.930,217.304 33.326 C 217.151 33.161,216.942 32.870,216.840 32.679 C 216.738 32.489,216.545 32.333,216.411 32.333 C 216.277 32.333,216.167 32.257,216.167 32.164 C 216.167 32.071,215.885 31.865,215.542 31.706 C 215.198 31.547,214.818 31.323,214.697 31.208 C 214.575 31.094,214.182 30.953,213.822 30.895 C 213.461 30.838,213.167 30.725,213.167 30.645 C 213.167 30.565,212.342 30.500,211.333 30.500 C 210.325 30.500,209.500 30.565,209.500 30.645 C 209.500 30.725,209.128 30.840,208.674 30.900 C 208.219 30.960,207.751 31.101,207.632 31.213 C 207.514 31.325,207.135 31.547,206.792 31.706 L 206.167 31.995 206.167 27.247 L 206.167 22.500 203.417 22.500 L 200.667 22.500 200.667 36.917 M259.570 22.768 C 259.791 22.853,259.833 23.212,259.833 25.018 L 259.833 27.167 257.750 27.167 L 255.667 27.167 255.667 25.028 C 255.667 23.851,255.717 22.839,255.778 22.778 C 255.917 22.639,259.211 22.630,259.570 22.768 M94.333 23.162 C 94.746 23.263,95.401 23.493,95.790 23.673 C 96.178 23.853,96.531 24.000,96.573 24.000 C 96.805 24.000,98.199 25.095,98.944 25.863 C 103.182 30.228,101.874 37.792,96.405 40.549 C 94.729 41.394,93.704 41.561,89.583 41.659 L 85.750 41.750 85.706 46.292 L 85.661 50.833 83.531 50.833 C 82.096 50.833,81.335 50.768,81.200 50.633 C 80.903 50.336,80.911 23.069,81.208 22.932 C 81.584 22.760,93.547 22.969,94.333 23.162 M238.500 34.581 L 238.500 46.329 244.875 46.373 L 251.250 46.417 251.250 48.500 L 251.250 50.583 242.667 50.583 L 234.083 50.583 234.041 36.708 L 233.998 22.833 236.249 22.833 L 238.500 22.833 238.500 34.581 M292.667 27.911 C 292.667 33.630,292.551 33.238,293.958 32.288 C 297.866 29.650,303.348 31.109,305.092 35.250 L 305.583 36.417 305.633 43.547 L 305.683 50.676 303.467 50.630 L 301.250 50.583 301.165 44.250 C 301.119 40.767,301.012 37.767,300.928 37.583 C 299.512 34.499,294.917 34.347,293.386 37.333 L 292.917 38.250 292.833 44.417 L 292.750 50.583 290.542 50.630 L 288.333 50.676 288.333 36.755 L 288.333 22.833 290.500 22.833 L 292.667 22.833 292.667 27.911 M353.333 25.000 L 353.333 27.167 351.167 27.167 L 349.000 27.167 349.000 25.000 L 349.000 22.833 351.167 22.833 L 353.333 22.833 353.333 25.000 M144.500 25.083 L 144.500 27.167 139.751 27.167 L 135.002 27.167 134.959 38.958 L 134.917 50.750 132.763 50.797 C 131.152 50.832,130.575 50.790,130.474 50.630 C 130.399 50.513,130.337 45.223,130.336 38.875 L 130.333 27.333 125.847 27.333 C 120.270 27.333,120.833 27.588,120.833 25.066 L 120.833 23.000 132.667 23.000 L 144.500 23.000 144.500 25.083 M205.500 28.000 C 205.500 33.596,205.417 33.309,206.778 32.406 C 210.859 29.696,216.121 31.120,217.883 35.411 C 218.504 36.923,218.711 40.201,218.563 46.208 L 218.450 50.833 216.471 50.833 L 214.492 50.833 214.310 50.375 C 214.198 50.093,214.087 47.606,214.022 43.917 L 213.917 37.917 213.454 37.129 C 212.698 35.843,211.789 35.417,209.806 35.417 C 205.975 35.417,205.272 37.354,205.602 47.000 C 205.668 48.928,205.641 50.072,205.522 50.375 L 205.342 50.833 203.254 50.833 L 201.167 50.833 201.167 36.917 L 201.167 23.000 203.333 23.000 L 205.500 23.000 205.500 28.000 M316.333 24.317 C 316.333 24.399,315.940 24.558,315.458 24.669 C 314.673 24.850,313.924 25.135,312.667 25.730 C 312.438 25.839,312.226 26.094,312.197 26.297 C 312.167 26.500,312.074 26.667,311.988 26.667 C 311.901 26.667,311.833 27.576,311.833 28.750 L 311.833 30.833 309.746 30.833 L 307.658 30.833 307.704 33.292 L 307.750 35.750 309.625 35.797 L 311.500 35.844 311.511 39.547 C 311.523 43.788,311.713 47.153,311.950 47.309 C 312.039 47.368,312.198 47.669,312.304 47.977 C 312.466 48.450,313.334 49.408,314.410 50.301 C 314.555 50.421,315.084 50.605,315.586 50.711 C 316.089 50.816,316.500 50.955,316.500 51.019 C 316.500 51.083,317.231 51.181,318.125 51.238 C 319.019 51.294,320.187 51.380,320.721 51.429 L 321.692 51.519 321.637 49.106 C 321.574 46.256,321.719 46.474,319.782 46.328 C 317.835 46.180,317.331 45.823,317.204 44.500 C 317.160 44.042,317.059 43.667,316.979 43.667 C 316.710 43.667,316.799 36.343,317.071 36.071 C 317.256 35.887,317.856 35.833,319.738 35.833 L 322.167 35.833 322.167 33.333 L 322.167 30.833 319.500 30.833 L 316.833 30.833 316.833 27.500 C 316.833 24.648,316.797 24.167,316.583 24.167 C 316.446 24.167,316.333 24.234,316.333 24.317 M316.462 28.222 L 316.507 31.333 319.087 31.333 L 321.667 31.333 321.667 33.250 L 321.667 35.167 319.417 35.167 C 316.272 35.167,316.500 34.804,316.500 39.811 C 316.500 46.076,316.846 46.833,319.711 46.833 C 321.131 46.833,321.167 46.888,321.167 49.059 L 321.167 50.884 319.208 50.780 C 312.947 50.445,312.034 48.990,312.010 39.302 C 311.998 34.908,312.188 35.283,309.917 35.168 L 308.250 35.083 308.201 33.583 C 308.123 31.194,307.990 31.333,310.337 31.333 L 312.333 31.333 312.333 29.242 C 312.333 26.776,312.498 26.301,313.455 25.992 C 313.801 25.881,314.158 25.732,314.250 25.661 C 314.484 25.480,316.049 25.016,316.250 25.068 C 316.352 25.094,316.434 26.327,316.462 28.222 M87.583 27.319 L 85.750 27.417 85.706 32.388 L 85.662 37.360 89.539 37.305 L 93.417 37.250 94.376 36.696 C 97.693 34.778,97.421 28.982,93.953 27.698 C 92.936 27.321,90.387 27.170,87.583 27.319 M93.144 27.958 C 93.202 28.050,93.499 28.179,93.803 28.245 C 94.107 28.311,94.396 28.470,94.446 28.599 C 94.495 28.728,94.642 28.833,94.773 28.833 C 94.904 28.833,95.059 28.965,95.119 29.125 C 95.178 29.285,95.409 29.696,95.632 30.037 C 96.650 31.593,96.007 35.223,94.585 35.951 C 94.401 36.046,93.987 36.264,93.667 36.437 C 93.161 36.708,92.624 36.757,89.625 36.806 L 86.167 36.862 86.167 32.357 L 86.167 27.852 86.958 27.778 C 88.366 27.647,93.032 27.783,93.144 27.958 M150.833 30.667 C 150.833 30.758,150.604 30.833,150.324 30.833 C 149.727 30.833,148.287 31.169,148.167 31.336 C 148.121 31.400,147.812 31.540,147.480 31.648 C 146.395 32.002,144.086 34.012,143.426 35.178 C 143.248 35.492,143.007 35.846,142.891 35.964 C 142.775 36.081,142.631 36.437,142.571 36.755 C 142.512 37.073,142.403 37.333,142.330 37.333 C 141.646 37.333,141.697 43.526,142.394 45.050 C 142.636 45.578,142.833 46.083,142.833 46.172 C 142.833 46.261,142.901 46.333,142.984 46.333 C 143.066 46.333,143.208 46.540,143.297 46.792 C 143.387 47.044,143.624 47.438,143.823 47.667 C 144.766 48.750,145.371 49.323,145.672 49.418 C 145.852 49.476,146.000 49.583,146.000 49.658 C 146.000 49.732,146.225 49.886,146.500 50.000 C 146.775 50.114,147.000 50.265,147.000 50.335 C 147.000 50.406,147.337 50.563,147.750 50.685 C 148.162 50.806,148.500 50.957,148.500 51.019 C 148.500 51.696,155.100 51.625,156.583 50.933 C 156.858 50.804,157.271 50.614,157.500 50.510 C 158.481 50.064,159.369 49.451,160.073 48.734 C 160.913 47.880,161.521 47.137,161.697 46.751 C 161.801 46.521,161.942 46.333,162.009 46.333 C 162.076 46.333,162.182 46.130,162.244 45.881 C 162.307 45.632,162.511 45.092,162.698 44.682 C 163.283 43.396,163.275 37.500,162.688 37.500 C 162.625 37.500,162.473 37.162,162.351 36.750 C 162.230 36.337,162.063 36.000,161.982 36.000 C 161.900 36.000,161.833 35.891,161.833 35.759 C 161.833 35.626,161.646 35.315,161.417 35.068 C 161.188 34.820,161.000 34.550,161.000 34.466 C 161.000 34.242,159.422 32.769,158.883 32.491 C 158.626 32.358,158.342 32.168,158.250 32.067 C 158.158 31.967,157.821 31.784,157.500 31.660 C 157.179 31.537,156.875 31.375,156.823 31.301 C 156.772 31.227,156.153 31.074,155.448 30.962 C 154.743 30.850,154.167 30.700,154.167 30.629 C 154.167 30.558,153.417 30.500,152.500 30.500 C 151.500 30.500,150.833 30.567,150.833 30.667 M187.167 30.667 C 187.167 30.758,186.985 30.833,186.763 30.833 C 186.171 30.833,184.667 31.203,184.667 31.349 C 184.667 31.418,184.385 31.566,184.042 31.679 C 183.174 31.962,181.608 33.201,180.822 34.226 C 180.460 34.697,180.099 35.163,180.020 35.261 C 179.941 35.359,179.777 35.716,179.655 36.053 C 179.533 36.391,179.378 36.667,179.312 36.667 C 179.245 36.667,179.096 37.098,178.981 37.625 C 178.865 38.152,178.695 38.635,178.602 38.697 C 178.375 38.850,178.388 43.326,178.615 43.473 C 178.709 43.534,178.840 43.883,178.908 44.250 C 179.048 45.015,179.791 46.667,179.994 46.667 C 180.069 46.667,180.182 46.873,180.244 47.125 C 180.372 47.641,182.326 49.617,183.087 50.000 C 183.360 50.137,183.621 50.293,183.667 50.347 C 184.226 51.001,185.834 51.396,188.238 51.468 C 190.595 51.539,193.000 51.312,193.000 51.018 C 193.000 50.953,193.276 50.800,193.614 50.678 C 194.225 50.457,194.402 50.345,195.012 49.792 C 195.189 49.631,195.400 49.500,195.482 49.500 C 195.563 49.500,195.844 49.227,196.107 48.894 C 196.369 48.560,196.669 48.198,196.774 48.089 C 197.130 47.721,197.990 45.975,198.097 45.400 C 198.156 45.087,198.271 44.789,198.352 44.738 C 198.434 44.688,198.500 44.464,198.500 44.240 L 198.500 43.833 196.083 43.833 C 194.583 43.833,193.667 43.897,193.667 44.000 C 193.667 44.092,193.535 44.167,193.375 44.167 C 193.215 44.167,192.865 44.354,192.599 44.584 C 192.333 44.813,192.062 45.000,191.998 45.000 C 191.934 45.000,191.665 45.190,191.399 45.421 C 191.134 45.653,190.816 45.925,190.694 46.025 C 190.130 46.485,187.322 46.435,186.723 45.954 C 185.762 45.184,184.842 44.127,184.647 43.571 C 184.521 43.211,184.343 42.863,184.251 42.798 C 184.015 42.631,184.033 39.520,184.271 39.369 C 184.374 39.304,184.510 39.009,184.574 38.715 C 184.676 38.247,185.740 36.981,186.516 36.405 C 186.878 36.135,188.219 35.833,189.053 35.833 C 190.458 35.833,190.842 36.003,191.950 37.110 L 193.006 38.167 195.836 38.167 C 198.834 38.167,199.175 38.054,198.455 37.304 C 198.339 37.182,198.110 36.652,197.947 36.125 C 197.783 35.598,197.578 35.167,197.491 35.167 C 197.405 35.167,197.333 35.058,197.333 34.926 C 197.333 34.794,197.202 34.588,197.042 34.468 C 196.881 34.348,196.650 34.063,196.529 33.833 C 196.407 33.604,196.011 33.192,195.649 32.917 C 195.287 32.642,194.888 32.325,194.763 32.214 C 194.638 32.103,194.209 31.883,193.809 31.725 C 193.410 31.568,193.042 31.379,192.991 31.304 C 192.940 31.230,192.452 31.088,191.907 30.989 C 191.362 30.890,190.786 30.740,190.627 30.655 C 190.232 30.443,187.167 30.454,187.167 30.667 M271.429 30.647 C 271.378 30.729,271.000 30.845,270.587 30.907 C 270.175 30.969,269.741 31.117,269.622 31.235 C 269.504 31.353,269.142 31.537,268.817 31.644 C 267.994 31.916,265.500 34.043,265.500 34.474 C 265.500 34.551,265.313 34.833,265.084 35.099 C 264.854 35.365,264.667 35.677,264.667 35.792 C 264.667 35.906,264.599 36.000,264.517 36.000 C 264.434 36.000,264.273 36.394,264.159 36.875 C 264.045 37.356,263.869 37.804,263.767 37.869 C 263.514 38.033,263.512 43.633,263.766 43.798 C 263.866 43.863,264.002 44.142,264.067 44.417 C 264.209 45.017,264.940 46.464,265.266 46.790 C 265.395 46.919,265.500 47.093,265.500 47.179 C 265.500 47.427,267.433 49.290,267.817 49.411 C 268.009 49.473,268.167 49.587,268.167 49.665 C 268.167 49.743,268.448 49.899,268.792 50.011 C 269.135 50.123,269.461 50.284,269.516 50.367 C 269.571 50.451,270.077 50.607,270.641 50.715 C 271.205 50.822,271.667 50.967,271.667 51.038 C 271.667 51.109,272.529 51.167,273.583 51.167 C 274.637 51.167,275.500 51.107,275.500 51.033 C 275.500 50.960,275.950 50.807,276.500 50.693 C 277.050 50.580,277.500 50.424,277.500 50.346 C 277.500 50.269,277.631 50.168,277.792 50.122 C 277.952 50.076,278.215 49.984,278.375 49.918 C 278.598 49.826,278.667 49.880,278.667 50.149 C 278.667 50.342,278.592 50.500,278.500 50.500 C 278.408 50.500,278.331 50.781,278.329 51.125 C 278.322 51.947,277.675 53.194,277.113 53.467 C 276.868 53.587,276.667 53.747,276.667 53.823 C 276.667 54.050,275.258 54.333,274.135 54.332 C 272.988 54.331,271.833 54.077,271.833 53.825 C 271.833 53.738,271.731 53.667,271.606 53.667 C 271.481 53.667,270.975 53.256,270.481 52.754 L 269.583 51.841 266.958 51.837 L 264.333 51.833 264.333 52.490 C 264.333 52.851,264.402 53.189,264.485 53.241 C 264.569 53.293,264.689 53.636,264.751 54.004 C 264.813 54.372,264.951 54.766,265.057 54.878 C 265.163 54.991,265.362 55.308,265.500 55.583 C 265.789 56.162,267.232 57.667,267.497 57.667 C 267.596 57.667,267.718 57.774,267.768 57.905 C 267.819 58.036,268.229 58.237,268.680 58.353 C 269.131 58.468,269.500 58.617,269.500 58.683 C 269.500 58.749,270.028 58.897,270.674 59.013 C 271.320 59.128,271.887 59.285,271.934 59.361 C 272.045 59.542,276.833 59.543,276.833 59.363 C 276.833 59.287,277.296 59.139,277.862 59.034 C 278.428 58.929,278.934 58.780,278.987 58.704 C 279.040 58.627,279.346 58.461,279.667 58.334 C 279.987 58.207,280.310 58.005,280.383 57.885 C 280.457 57.765,280.602 57.667,280.706 57.667 C 280.810 57.667,281.237 57.297,281.656 56.846 C 282.767 55.647,282.826 55.564,283.096 54.797 C 283.232 54.412,283.412 54.055,283.495 54.003 C 283.900 53.753,283.998 51.280,283.999 41.292 L 284.000 30.833 281.333 30.833 L 278.667 30.833 278.667 31.351 C 278.667 31.779,278.616 31.848,278.375 31.749 C 278.215 31.683,277.952 31.591,277.792 31.545 C 277.631 31.499,277.500 31.400,277.500 31.326 C 277.500 31.251,277.087 31.098,276.583 30.985 C 276.079 30.873,275.667 30.717,275.667 30.640 C 275.667 30.452,271.545 30.459,271.429 30.647 M387.667 30.643 C 387.667 30.722,387.286 30.832,386.821 30.887 C 385.180 31.081,381.333 33.802,381.333 34.768 C 381.333 34.896,381.270 35.000,381.192 35.000 C 381.114 35.000,380.910 35.319,380.738 35.708 C 380.566 36.098,380.371 36.456,380.304 36.505 C 380.237 36.554,380.087 37.097,379.970 37.713 C 379.853 38.329,379.699 38.833,379.629 38.833 C 379.558 38.833,379.500 39.733,379.500 40.833 C 379.500 41.933,379.558 42.833,379.629 42.833 C 379.699 42.833,379.846 43.301,379.955 43.873 C 380.063 44.444,380.230 44.938,380.326 44.970 C 380.422 45.002,380.500 45.131,380.500 45.258 C 380.500 45.586,381.035 46.667,381.198 46.667 C 381.272 46.667,381.333 46.769,381.333 46.895 C 381.333 47.196,383.476 49.333,383.777 49.333 C 383.905 49.333,384.052 49.442,384.103 49.575 C 384.154 49.708,384.471 49.907,384.806 50.016 C 385.142 50.125,385.460 50.281,385.513 50.362 C 385.566 50.443,386.072 50.596,386.638 50.701 C 387.204 50.806,387.667 50.954,387.667 51.029 C 387.667 51.105,388.529 51.167,389.583 51.167 C 390.637 51.167,391.500 51.101,391.500 51.021 C 391.500 50.942,391.872 50.827,392.326 50.767 C 392.781 50.706,393.249 50.560,393.368 50.442 C 393.486 50.324,393.832 50.141,394.136 50.035 L 394.689 49.843 394.571 50.790 C 394.506 51.311,394.357 51.833,394.240 51.951 C 394.123 52.068,393.980 52.379,393.922 52.643 C 393.852 52.961,393.622 53.228,393.242 53.433 C 392.925 53.603,392.667 53.789,392.667 53.845 C 392.667 54.441,388.299 54.451,387.833 53.856 C 387.704 53.691,387.115 53.334,386.792 53.226 C 386.631 53.172,386.500 53.034,386.500 52.920 C 386.500 52.060,385.749 51.833,382.894 51.833 C 381.187 51.833,380.167 51.896,380.167 52.000 C 380.167 52.092,380.242 52.167,380.333 52.167 C 380.425 52.167,380.500 52.378,380.500 52.636 C 380.500 53.144,380.968 54.864,381.143 55.000 C 381.202 55.046,381.363 55.304,381.500 55.573 C 381.809 56.177,383.478 57.833,383.779 57.833 C 383.901 57.833,384.000 57.909,384.000 58.001 C 384.000 58.093,384.337 58.258,384.750 58.369 C 385.162 58.479,385.500 58.622,385.500 58.686 C 385.500 58.750,386.028 58.897,386.674 59.013 C 387.320 59.128,387.887 59.285,387.934 59.361 C 388.049 59.548,392.833 59.540,392.833 59.353 C 392.833 59.271,393.246 59.154,393.750 59.091 C 394.254 59.028,394.761 58.883,394.875 58.768 C 394.990 58.654,395.329 58.475,395.630 58.371 C 395.931 58.266,396.285 58.084,396.417 57.965 C 396.549 57.847,396.954 57.525,397.317 57.250 C 397.680 56.975,398.111 56.506,398.276 56.208 C 398.441 55.910,398.628 55.667,398.692 55.667 C 398.755 55.667,398.899 55.385,399.011 55.042 C 399.123 54.698,399.286 54.371,399.373 54.314 C 399.893 53.976,400.000 51.762,400.000 41.292 L 400.000 30.833 397.333 30.833 L 394.667 30.833 394.667 31.333 C 394.667 31.608,394.619 31.833,394.561 31.833 C 394.265 31.833,393.167 31.430,393.167 31.322 C 393.167 31.253,392.623 31.112,391.958 31.008 C 391.294 30.905,390.620 30.748,390.461 30.660 C 390.101 30.461,387.667 30.447,387.667 30.643 M165.833 41.000 L 165.833 51.167 168.573 51.167 L 171.312 51.167 171.364 44.827 C 171.402 40.290,171.471 38.454,171.608 38.369 C 171.713 38.303,171.930 37.947,172.091 37.576 C 172.251 37.205,172.540 36.821,172.733 36.723 C 172.926 36.624,173.342 36.408,173.658 36.243 C 174.064 36.031,174.739 35.920,175.950 35.866 C 176.894 35.824,177.667 35.724,177.667 35.645 C 177.667 35.565,177.771 35.500,177.899 35.500 C 178.267 35.500,178.333 35.106,178.333 32.903 L 178.333 30.833 176.425 30.833 C 174.666 30.833,172.867 31.063,172.667 31.313 C 172.621 31.370,172.302 31.547,171.958 31.706 L 171.333 31.995 171.333 31.414 L 171.333 30.833 168.583 30.833 L 165.833 30.833 165.833 41.000 M255.000 41.004 L 255.000 51.175 257.708 51.129 L 260.417 51.083 260.460 40.958 L 260.503 30.833 257.751 30.833 L 255.000 30.833 255.000 41.004 M330.601 31.097 C 330.546 31.242,330.499 32.198,330.497 33.222 C 330.494 35.627,330.647 35.481,328.077 35.536 L 325.917 35.583 325.873 43.458 L 325.830 51.333 328.498 51.333 L 331.167 51.333 331.167 43.750 L 331.167 36.167 333.000 36.167 C 334.111 36.167,334.833 36.232,334.833 36.333 C 334.833 36.425,335.010 36.500,335.225 36.500 C 336.265 36.500,337.966 37.719,338.250 38.667 C 338.318 38.896,338.459 39.188,338.562 39.317 C 338.691 39.478,338.766 41.391,338.801 45.442 L 338.853 51.333 341.593 51.333 L 344.333 51.333 344.333 44.750 C 344.333 41.129,344.269 38.167,344.190 38.167 C 344.112 38.167,344.002 37.728,343.946 37.192 C 343.847 36.249,343.109 34.500,342.810 34.500 C 342.731 34.500,342.667 34.403,342.667 34.285 C 342.667 33.791,340.491 32.020,339.469 31.684 C 339.131 31.572,338.831 31.415,338.802 31.333 C 338.619 30.817,330.795 30.591,330.601 31.097 M348.500 41.000 L 348.500 51.167 351.167 51.167 L 353.833 51.167 353.833 41.000 L 353.833 30.833 351.167 30.833 L 348.500 30.833 348.500 41.000 M363.167 32.967 C 363.167 35.644,363.315 35.500,360.550 35.500 L 358.333 35.500 358.333 43.417 L 358.333 51.333 361.083 51.333 L 363.833 51.333 363.833 43.750 L 363.833 36.167 365.583 36.167 C 366.546 36.167,367.333 36.232,367.333 36.312 C 367.333 36.392,367.698 36.505,368.144 36.565 C 368.590 36.624,369.109 36.802,369.297 36.961 C 370.464 37.948,370.714 38.252,370.974 38.996 C 371.080 39.301,371.167 39.726,371.167 39.942 C 371.167 40.157,371.242 40.333,371.333 40.333 C 371.441 40.333,371.500 42.278,371.500 45.833 L 371.500 51.333 374.063 51.333 L 376.625 51.333 376.729 50.813 C 376.900 49.961,376.841 39.014,376.659 37.757 C 375.968 32.975,372.713 30.833,366.136 30.833 L 363.167 30.833 363.167 32.967 M102.668 31.042 C 102.677 31.236,103.195 32.754,103.302 32.899 C 103.378 33.000,103.540 33.402,103.663 33.792 C 103.786 34.181,103.933 34.500,103.990 34.500 C 104.047 34.500,104.194 34.837,104.315 35.250 C 104.437 35.662,104.588 36.000,104.650 36.000 C 104.713 36.000,104.854 36.337,104.965 36.750 C 105.075 37.162,105.232 37.500,105.314 37.500 C 105.396 37.500,105.512 37.760,105.571 38.078 C 105.631 38.396,105.772 38.752,105.885 38.870 C 105.997 38.987,106.223 39.515,106.387 40.042 C 106.550 40.569,106.747 41.000,106.823 41.000 C 106.900 41.000,107.012 41.260,107.071 41.578 C 107.131 41.896,107.275 42.252,107.391 42.370 C 107.507 42.487,107.702 42.940,107.823 43.375 C 107.944 43.810,108.099 44.167,108.167 44.167 C 108.235 44.167,108.385 44.504,108.500 44.917 C 108.615 45.329,108.759 45.667,108.819 45.667 C 108.878 45.667,109.027 46.004,109.149 46.417 C 109.270 46.829,109.423 47.167,109.488 47.167 C 109.553 47.167,109.741 47.598,109.907 48.125 C 110.072 48.652,110.289 49.135,110.389 49.199 C 110.632 49.352,110.627 51.208,110.384 51.289 C 110.282 51.323,110.064 51.797,109.901 52.342 C 109.737 52.887,109.553 53.333,109.490 53.333 C 109.428 53.333,109.282 53.671,109.167 54.083 C 109.051 54.496,108.897 54.833,108.825 54.833 C 108.752 54.833,108.642 55.077,108.579 55.375 C 108.516 55.673,108.332 56.142,108.170 56.417 C 108.008 56.692,107.823 57.141,107.758 57.415 C 107.693 57.689,107.572 57.955,107.489 58.007 C 107.406 58.058,107.290 58.340,107.232 58.633 L 107.125 59.167 109.740 59.167 C 112.352 59.167,113.000 59.050,113.000 58.577 C 113.000 58.443,113.067 58.333,113.148 58.333 C 113.230 58.333,113.396 57.996,113.518 57.583 C 113.640 57.171,113.789 56.833,113.850 56.833 C 113.911 56.833,114.045 56.496,114.149 56.083 C 114.253 55.671,114.405 55.333,114.486 55.333 C 114.567 55.333,114.723 54.958,114.833 54.500 C 114.943 54.042,115.101 53.667,115.183 53.667 C 115.266 53.667,115.333 53.556,115.333 53.422 C 115.333 53.287,115.512 52.781,115.731 52.297 C 116.658 50.248,116.809 49.882,117.009 49.208 C 117.125 48.819,117.274 48.500,117.340 48.500 C 117.406 48.500,117.545 48.163,117.649 47.750 C 117.753 47.337,117.906 47.000,117.989 47.000 C 118.072 47.000,118.192 46.756,118.255 46.458 C 118.318 46.160,118.503 45.692,118.667 45.417 C 118.830 45.142,119.016 44.673,119.079 44.375 C 119.142 44.077,119.262 43.833,119.347 43.833 C 119.431 43.833,119.500 43.723,119.500 43.588 C 119.500 43.452,119.729 42.842,120.009 42.231 C 120.289 41.620,120.561 40.905,120.613 40.643 C 120.665 40.381,120.765 40.167,120.834 40.167 C 120.904 40.167,121.045 39.829,121.149 39.417 C 121.253 39.004,121.406 38.667,121.489 38.667 C 121.572 38.667,121.692 38.423,121.755 38.125 C 121.818 37.827,122.003 37.358,122.167 37.083 C 122.330 36.808,122.516 36.340,122.579 36.042 C 122.642 35.744,122.761 35.500,122.844 35.500 C 122.927 35.500,123.080 35.162,123.184 34.750 C 123.288 34.337,123.420 34.000,123.478 34.000 C 123.536 34.000,123.731 33.531,123.910 32.958 C 124.090 32.385,124.286 31.879,124.346 31.833 C 124.406 31.787,124.508 31.581,124.572 31.375 L 124.689 31.000 121.892 31.000 C 118.744 31.000,118.510 31.092,118.260 32.422 C 118.200 32.740,118.096 33.000,118.028 33.000 C 117.960 33.000,117.757 33.487,117.577 34.083 C 117.397 34.679,117.195 35.167,117.127 35.167 C 117.060 35.167,116.920 35.504,116.816 35.917 C 116.712 36.329,116.570 36.667,116.500 36.667 C 116.430 36.667,116.288 37.004,116.184 37.417 C 116.080 37.829,115.927 38.167,115.844 38.167 C 115.761 38.167,115.642 38.410,115.579 38.708 C 115.516 39.006,115.330 39.475,115.167 39.750 C 115.003 40.025,114.818 40.494,114.755 40.792 C 114.692 41.090,114.585 41.333,114.517 41.333 C 114.450 41.333,114.265 41.743,114.107 42.244 C 113.762 43.339,113.565 43.508,113.417 42.835 C 113.356 42.559,113.253 42.333,113.186 42.333 C 113.120 42.333,112.927 41.846,112.756 41.250 C 112.586 40.654,112.397 40.167,112.337 40.167 C 112.276 40.167,112.125 39.792,112.000 39.333 C 111.875 38.875,111.724 38.500,111.663 38.500 C 111.602 38.500,111.459 38.187,111.344 37.804 C 111.229 37.421,111.037 36.952,110.917 36.762 C 110.798 36.572,110.649 36.173,110.586 35.875 C 110.524 35.577,110.418 35.333,110.350 35.333 C 110.282 35.333,110.125 34.958,110.000 34.500 C 109.875 34.042,109.726 33.667,109.668 33.667 C 109.610 33.667,109.428 33.217,109.264 32.667 C 109.099 32.117,108.906 31.667,108.835 31.667 C 108.764 31.667,108.666 31.517,108.618 31.333 C 108.543 31.046,102.656 30.757,102.668 31.042 M154.799 31.334 C 165.907 33.997,165.081 49.580,153.756 51.000 C 148.073 51.712,143.087 48.005,142.334 42.506 C 141.363 35.416,147.792 29.654,154.799 31.334 M191.222 31.347 C 194.022 32.060,195.990 33.605,197.295 36.113 C 197.683 36.858,198.000 37.512,198.000 37.567 C 198.000 37.622,196.959 37.667,195.686 37.667 L 193.373 37.667 192.372 36.678 C 188.299 32.656,181.926 37.532,183.901 43.159 C 185.304 47.158,188.852 48.084,192.460 45.392 L 193.670 44.490 195.710 44.537 C 198.065 44.591,198.000 44.512,197.146 46.259 C 193.819 53.068,183.595 52.731,180.015 45.695 C 176.134 38.067,183.016 29.256,191.222 31.347 M276.177 31.384 C 276.778 31.595,277.626 32.007,278.060 32.300 C 279.033 32.957,278.941 32.976,279.075 32.083 L 279.187 31.333 281.350 31.333 L 283.514 31.333 283.465 42.042 L 283.417 52.750 282.846 54.074 C 280.855 58.693,274.370 60.401,268.809 57.771 C 266.879 56.857,264.833 54.114,264.833 52.438 C 264.833 51.769,269.105 52.242,269.824 52.990 C 273.372 56.682,278.661 55.194,278.958 50.419 C 279.059 48.812,279.079 48.830,277.920 49.483 C 270.611 53.609,261.840 46.135,264.391 37.954 C 265.992 32.818,271.501 29.747,276.177 31.384 M390.603 31.258 C 391.417 31.400,392.717 31.774,393.491 32.090 C 395.005 32.707,395.159 32.680,395.164 31.792 L 395.167 31.333 397.417 31.333 L 399.667 31.333 399.664 41.292 C 399.661 52.261,399.634 52.593,398.572 54.690 C 395.291 61.164,383.262 60.213,381.162 53.313 L 380.877 52.375 381.810 52.279 C 383.939 52.059,385.287 52.311,385.860 53.034 C 388.804 56.750,394.975 54.977,395.061 50.389 C 395.089 48.890,395.062 48.868,393.948 49.497 C 389.405 52.061,383.525 50.180,381.110 45.390 C 378.225 39.668,381.414 32.529,387.417 31.272 C 388.924 30.956,388.871 30.956,390.603 31.258 M170.867 32.326 L 170.917 33.318 171.583 32.739 C 172.817 31.666,173.517 31.437,175.792 31.361 L 177.833 31.293 177.833 32.973 C 177.833 35.184,177.760 35.260,175.533 35.367 C 173.246 35.478,172.184 36.072,171.277 37.750 C 170.931 38.389,170.913 38.665,170.833 44.500 L 170.750 50.583 168.583 50.583 L 166.417 50.583 166.374 40.958 L 166.331 31.333 168.574 31.333 L 170.817 31.333 170.867 32.326 M259.918 31.708 C 259.968 31.915,259.988 36.246,259.963 41.333 L 259.917 50.583 257.750 50.583 L 255.583 50.583 255.540 41.167 C 255.516 35.987,255.533 31.656,255.576 31.542 C 255.743 31.106,259.810 31.262,259.918 31.708 M338.667 31.915 C 343.140 33.927,343.750 35.458,343.750 44.667 L 343.750 50.750 341.553 50.796 L 339.357 50.843 339.301 45.130 L 339.245 39.417 338.813 38.492 C 337.905 36.547,336.605 35.913,333.155 35.731 L 331.000 35.617 331.000 33.586 C 331.000 32.469,331.056 31.498,331.125 31.429 C 331.514 31.033,337.575 31.424,338.667 31.915 M353.250 41.000 L 353.250 50.583 351.125 50.630 L 349.000 50.677 349.000 41.000 L 349.000 31.323 351.125 31.370 L 353.250 31.417 353.250 41.000 M369.809 31.508 C 373.002 32.026,375.750 34.877,376.175 38.111 C 376.273 38.857,376.326 41.847,376.298 45.083 L 376.250 50.750 374.083 50.750 L 371.917 50.750 371.833 45.000 C 371.738 38.443,371.723 38.366,370.292 37.053 C 369.299 36.142,368.305 35.859,365.633 35.723 L 363.500 35.615 363.500 33.585 C 363.500 32.469,363.550 31.506,363.611 31.444 C 363.787 31.268,368.639 31.318,369.809 31.508 M108.535 32.500 C 108.784 33.004,109.294 34.204,109.670 35.167 C 110.046 36.129,110.456 37.142,110.581 37.417 C 110.706 37.692,111.303 39.154,111.908 40.667 C 113.433 44.482,113.833 45.277,113.833 44.491 C 113.833 44.341,114.167 43.533,115.588 40.250 C 115.707 39.975,115.994 39.300,116.225 38.750 C 116.456 38.200,116.920 37.112,117.254 36.333 C 117.589 35.554,118.126 34.242,118.448 33.417 C 118.769 32.592,119.109 31.823,119.203 31.708 C 119.353 31.526,123.833 31.374,123.833 31.552 C 123.833 31.644,122.780 34.232,122.260 35.417 C 122.139 35.692,121.538 37.117,120.923 38.583 C 120.309 40.050,119.708 41.475,119.588 41.750 C 119.468 42.025,119.132 42.813,118.842 43.500 C 118.551 44.188,118.248 44.900,118.169 45.083 C 118.089 45.267,117.836 45.867,117.607 46.417 C 117.378 46.967,116.874 48.167,116.488 49.083 C 116.101 50.000,115.566 51.275,115.299 51.917 C 115.032 52.558,114.747 53.233,114.664 53.417 C 114.499 53.785,114.247 54.394,113.388 56.500 C 112.499 58.679,112.517 58.667,109.983 58.667 L 107.858 58.667 108.239 57.708 C 108.448 57.181,109.193 55.417,109.893 53.787 C 111.458 50.147,111.454 50.301,110.068 47.112 C 109.463 45.721,108.484 43.458,107.891 42.083 C 107.299 40.708,106.745 39.433,106.660 39.250 C 105.919 37.654,103.500 31.880,103.500 31.709 C 103.500 31.537,103.989 31.500,105.792 31.537 L 108.083 31.583 108.535 32.500 M272.383 35.405 C 268.528 36.340,267.209 41.876,270.143 44.809 C 272.796 47.462,277.369 46.585,278.922 43.124 C 280.875 38.773,277.061 34.271,272.383 35.405 M388.492 35.394 C 386.142 36.027,384.590 38.155,384.586 40.750 C 384.572 48.035,395.021 48.332,395.304 41.055 C 395.462 37.010,392.286 34.370,388.492 35.394 M150.793 35.503 C 146.812 36.509,145.435 41.920,148.354 45.086 C 152.328 49.398,159.151 45.660,158.008 39.797 C 157.381 36.579,154.148 34.655,150.793 35.503 M274.645 35.833 C 275.215 35.833,275.776 36.050,276.822 36.675 C 277.384 37.010,277.946 37.657,278.191 38.250 C 278.305 38.525,278.477 38.804,278.574 38.869 C 278.818 39.034,278.809 42.641,278.565 42.798 C 278.463 42.863,278.262 43.147,278.117 43.429 C 277.877 43.898,277.120 44.649,276.167 45.364 C 275.419 45.925,272.478 45.954,271.931 45.407 C 271.799 45.275,271.624 45.167,271.543 45.167 C 271.302 45.167,269.847 43.639,269.730 43.263 C 269.670 43.073,269.557 42.875,269.478 42.824 C 268.979 42.501,269.000 38.667,269.501 38.667 C 269.572 38.667,269.674 38.492,269.728 38.279 C 269.968 37.322,271.711 36.038,272.974 35.889 C 273.446 35.833,273.839 35.704,273.846 35.602 C 273.854 35.490,273.893 35.500,273.944 35.625 C 273.990 35.740,274.306 35.833,274.645 35.833 M390.572 35.833 C 391.269 35.833,392.154 36.142,392.571 36.530 C 392.750 36.697,392.961 36.833,393.039 36.833 C 393.248 36.833,393.973 37.651,394.089 38.019 C 394.144 38.192,394.250 38.333,394.325 38.333 C 394.540 38.333,394.833 39.727,394.833 40.750 C 394.833 41.773,394.540 43.167,394.325 43.167 C 394.250 43.167,394.143 43.313,394.086 43.492 C 393.973 43.847,392.885 45.000,392.662 45.000 C 392.586 45.000,392.403 45.121,392.255 45.269 C 391.578 45.946,387.833 45.984,387.833 45.314 C 387.833 45.233,387.731 45.167,387.607 45.167 C 387.399 45.167,386.559 44.419,386.032 43.764 C 385.912 43.615,385.731 43.251,385.629 42.955 C 385.528 42.659,385.366 42.365,385.270 42.301 C 384.963 42.099,385.064 39.245,385.389 38.920 C 385.542 38.768,385.667 38.533,385.667 38.398 C 385.667 38.080,387.143 36.500,387.439 36.500 C 387.564 36.500,387.667 36.429,387.667 36.341 C 387.667 36.151,388.731 35.836,389.375 35.834 C 389.627 35.834,389.839 35.740,389.846 35.625 C 389.857 35.458,389.876 35.458,389.944 35.625 C 389.990 35.740,390.273 35.833,390.572 35.833 M153.812 35.989 C 154.213 36.066,154.588 36.194,154.645 36.273 C 154.703 36.352,154.973 36.530,155.245 36.667 C 155.517 36.804,155.930 37.130,156.162 37.392 C 156.394 37.653,156.710 38.005,156.864 38.173 C 157.183 38.520,157.498 39.528,157.499 40.208 C 157.500 40.460,157.575 40.667,157.667 40.667 C 157.758 40.667,157.833 40.892,157.833 41.167 C 157.833 41.442,157.758 41.667,157.667 41.667 C 157.575 41.667,157.500 41.843,157.500 42.058 C 157.500 42.515,157.186 43.477,156.928 43.807 C 156.389 44.501,155.163 45.645,154.855 45.743 C 154.660 45.805,154.500 45.916,154.500 45.990 C 154.500 46.063,154.050 46.212,153.500 46.320 C 152.463 46.524,150.500 46.300,150.500 45.978 C 150.500 45.899,150.383 45.833,150.240 45.833 C 149.914 45.833,148.167 44.198,148.167 43.892 C 148.167 43.768,148.107 43.667,148.033 43.667 C 147.877 43.667,147.500 42.686,147.500 42.280 C 147.500 42.126,147.425 42.000,147.333 42.000 C 147.242 42.000,147.167 41.587,147.167 41.083 C 147.167 40.579,147.224 40.167,147.294 40.167 C 147.364 40.167,147.509 39.799,147.615 39.349 C 147.722 38.900,147.946 38.369,148.113 38.170 C 149.850 36.101,151.374 35.518,153.812 35.989 M330.627 43.458 L 330.670 50.833 328.502 50.833 L 326.333 50.833 326.333 43.528 C 326.333 39.510,326.386 36.170,326.449 36.106 C 326.513 36.042,327.469 36.011,328.574 36.037 L 330.583 36.083 330.627 43.458 M363.296 43.083 C 363.354 51.828,363.640 50.854,361.037 50.797 L 358.917 50.750 358.873 43.583 C 358.849 39.642,358.867 36.321,358.912 36.203 C 358.973 36.042,359.512 36.001,361.122 36.037 L 363.250 36.083 363.296 43.083 " stroke="none" fill="#f3f3f3" fill-rule="evenodd"></path><path id="path2" d="M81.254 23.704 C 81.199 24.096,81.175 30.267,81.202 37.417 L 81.250 50.417 82.500 50.542 C 83.188 50.611,84.144 50.624,84.625 50.572 L 85.500 50.476 85.500 45.988 L 85.500 41.500 88.292 41.487 C 95.307 41.453,98.459 40.128,100.223 36.471 C 102.130 32.518,101.367 28.406,98.167 25.383 C 97.846 25.080,97.452 24.790,97.292 24.738 C 97.131 24.687,97.000 24.586,97.000 24.515 C 97.000 24.445,96.700 24.288,96.333 24.167 C 95.967 24.046,95.667 23.894,95.667 23.829 C 95.667 23.765,95.235 23.630,94.708 23.529 C 94.181 23.428,93.487 23.293,93.167 23.229 C 92.846 23.166,90.057 23.086,86.969 23.053 L 81.355 22.991 81.254 23.704 M121.167 25.000 L 121.167 27.000 125.833 27.000 L 130.500 27.000 130.500 38.750 L 130.500 50.500 132.666 50.500 L 134.831 50.500 134.874 38.708 L 134.917 26.917 139.542 26.872 L 144.167 26.828 144.167 24.914 L 144.167 23.000 132.667 23.000 L 121.167 23.000 121.167 25.000 M234.333 36.667 L 234.333 50.333 242.667 50.333 L 251.000 50.333 251.000 48.417 L 251.000 46.500 244.667 46.500 L 238.333 46.500 238.333 34.750 L 238.333 23.000 236.333 23.000 L 234.333 23.000 234.333 36.667 M255.833 24.995 L 255.833 27.000 257.755 27.000 L 259.677 27.000 259.630 25.042 L 259.583 23.083 257.708 23.036 L 255.833 22.989 255.833 24.995 M288.500 36.750 L 288.500 50.500 290.500 50.500 L 292.500 50.500 292.505 45.708 C 292.511 38.807,292.659 37.692,293.752 36.322 C 295.358 34.307,299.232 34.594,300.748 36.840 L 301.250 37.583 301.297 44.042 L 301.345 50.500 303.422 50.500 L 305.500 50.500 305.495 44.458 C 305.489 37.966,305.371 36.372,304.808 35.180 C 304.062 33.601,302.666 32.295,301.229 31.832 C 300.874 31.717,300.478 31.539,300.349 31.437 C 299.886 31.067,296.520 31.201,295.627 31.625 C 295.192 31.831,294.767 32.000,294.682 32.000 C 294.597 32.000,294.503 32.056,294.472 32.125 C 294.375 32.344,293.017 33.167,292.754 33.167 C 292.532 33.167,292.500 32.523,292.500 28.083 L 292.500 23.000 290.500 23.000 L 288.500 23.000 288.500 36.750 M349.333 24.917 L 349.333 26.833 351.167 26.833 L 353.000 26.833 353.000 24.917 L 353.000 23.000 351.167 23.000 L 349.333 23.000 349.333 24.917 M201.334 36.958 L 201.334 50.583 203.126 50.566 C 204.111 50.556,205.003 50.537,205.108 50.524 C 205.247 50.507,205.316 48.822,205.360 44.375 C 205.427 37.604,205.460 37.395,206.652 36.270 C 208.345 34.672,211.961 34.687,213.123 36.297 C 213.285 36.521,213.497 36.789,213.595 36.893 C 214.076 37.408,214.167 38.326,214.180 42.817 C 214.202 50.593,214.163 50.427,216.027 50.595 C 218.080 50.780,218.121 50.752,218.249 49.125 C 218.538 45.464,218.330 37.252,217.919 36.083 C 217.249 34.172,216.088 32.798,214.533 32.074 C 214.011 31.831,213.403 31.546,213.183 31.441 C 212.673 31.198,209.620 31.196,209.313 31.439 C 209.187 31.539,208.858 31.673,208.583 31.737 C 208.308 31.801,207.804 32.037,207.462 32.260 C 207.120 32.484,206.794 32.667,206.738 32.667 C 206.682 32.667,206.445 32.817,206.212 33.000 C 205.324 33.699,205.333 33.748,205.333 28.333 L 205.333 23.333 203.333 23.333 L 201.333 23.333 201.334 36.958 M314.697 25.756 C 312.544 26.526,312.683 26.297,312.629 29.142 L 312.583 31.583 310.542 31.630 L 308.500 31.677 308.500 33.338 L 308.500 35.000 310.077 35.000 C 312.465 35.000,312.298 34.552,312.363 41.144 L 312.417 46.583 312.863 47.417 C 313.275 48.188,313.505 48.463,314.423 49.290 C 315.217 50.005,318.110 50.629,320.792 50.664 C 320.942 50.666,320.999 50.283,320.998 49.292 C 320.994 47.199,321.013 47.229,319.612 47.117 C 316.580 46.876,316.430 46.566,316.366 40.396 C 316.304 34.456,316.020 35.000,319.179 35.000 L 321.500 35.000 321.500 33.167 L 321.500 31.333 318.920 31.333 L 316.341 31.333 316.295 28.268 L 316.250 25.202 314.697 25.756 M93.254 27.244 C 95.728 27.888,96.899 29.525,96.899 32.341 C 96.899 36.581,94.554 37.921,87.757 37.569 L 85.500 37.452 85.500 32.337 C 85.500 29.524,85.550 27.172,85.611 27.111 C 85.843 26.879,92.284 26.991,93.254 27.244 M151.338 31.297 C 150.837 31.328,150.349 31.415,150.255 31.491 C 150.161 31.566,149.821 31.683,149.500 31.750 C 146.518 32.371,143.134 35.894,142.751 38.777 C 142.692 39.220,142.567 39.742,142.473 39.936 C 141.448 42.043,144.245 48.052,146.792 49.215 C 146.998 49.310,147.167 49.450,147.167 49.527 C 147.167 49.604,147.239 49.667,147.328 49.667 C 147.417 49.667,147.894 49.851,148.388 50.077 C 151.398 51.454,155.387 51.069,158.301 49.120 C 159.220 48.505,160.777 46.939,160.922 46.484 C 160.977 46.309,161.092 46.167,161.178 46.167 C 161.263 46.167,161.333 46.094,161.333 46.005 C 161.333 45.916,161.513 45.447,161.733 44.963 C 164.031 39.903,160.885 33.077,155.667 31.802 C 155.254 31.701,154.842 31.565,154.750 31.499 C 154.536 31.344,152.517 31.225,151.338 31.297 M187.833 31.275 C 185.865 31.489,183.602 32.569,182.270 33.932 C 180.726 35.511,180.443 35.955,179.632 38.083 C 178.888 40.033,179.283 44.624,180.283 45.637 C 180.402 45.758,180.500 45.931,180.500 46.021 C 180.500 46.778,182.778 48.997,184.441 49.860 C 186.132 50.738,189.487 51.300,190.402 50.860 C 190.594 50.768,191.088 50.645,191.500 50.588 C 192.251 50.483,193.803 49.803,194.367 49.333 C 195.448 48.431,196.331 47.365,196.811 46.383 C 197.116 45.760,197.433 45.119,197.517 44.958 C 197.658 44.689,197.525 44.667,195.744 44.667 L 193.819 44.667 192.868 45.374 C 192.345 45.763,191.877 46.135,191.828 46.200 C 191.116 47.153,188.025 47.426,186.518 46.670 C 185.160 45.989,183.667 44.135,183.667 43.132 C 183.667 42.979,183.592 42.807,183.500 42.750 C 183.408 42.693,183.333 41.946,183.333 41.083 C 183.333 40.221,183.408 39.473,183.500 39.417 C 183.592 39.360,183.667 39.179,183.667 39.015 C 183.667 38.851,183.860 38.349,184.097 37.900 C 185.847 34.579,190.280 33.984,192.782 36.733 L 193.481 37.500 195.574 37.500 C 196.725 37.500,197.667 37.468,197.667 37.430 C 197.667 37.391,197.389 36.810,197.050 36.138 C 195.419 32.906,191.561 30.870,187.833 31.275 M272.083 31.270 C 271.808 31.311,271.433 31.412,271.250 31.494 C 271.067 31.576,270.633 31.730,270.286 31.836 C 268.745 32.308,266.422 34.193,265.739 35.526 C 265.582 35.833,265.404 36.121,265.342 36.167 C 264.016 37.162,264.011 44.554,265.337 45.500 C 265.401 45.546,265.582 45.834,265.739 46.140 C 266.474 47.574,268.901 49.476,270.489 49.863 C 270.907 49.965,271.350 50.126,271.472 50.222 C 272.314 50.884,276.123 50.278,277.966 49.188 C 278.451 48.901,278.920 48.667,279.007 48.667 C 279.228 48.667,279.208 51.188,278.981 52.091 C 278.132 55.463,272.947 56.230,269.917 53.432 C 269.458 53.009,268.993 52.588,268.882 52.498 C 268.384 52.091,265.167 52.301,265.167 52.740 C 265.167 52.964,265.232 53.187,265.312 53.237 C 265.392 53.286,265.506 53.572,265.566 53.872 C 266.582 58.951,276.813 60.511,281.109 56.241 C 283.385 53.979,283.560 52.064,283.337 31.958 C 283.334 31.696,283.122 31.667,281.250 31.667 L 279.167 31.667 279.167 32.417 C 279.167 33.333,279.092 33.338,277.896 32.500 C 277.373 32.133,276.863 31.833,276.764 31.832 C 276.665 31.832,276.363 31.716,276.093 31.576 C 275.596 31.316,273.058 31.123,272.083 31.270 M166.778 31.444 C 166.717 31.506,166.667 35.818,166.667 41.028 L 166.667 50.500 168.561 50.500 L 170.456 50.500 170.534 44.625 L 170.612 38.750 171.049 37.833 C 171.981 35.881,172.885 35.328,175.387 35.175 C 177.543 35.043,177.494 35.092,177.497 33.052 L 177.500 31.520 176.759 31.409 C 176.075 31.307,175.368 31.408,173.587 31.866 C 172.887 32.046,171.795 32.726,171.269 33.310 C 170.829 33.799,170.722 33.659,170.590 32.419 L 170.473 31.333 168.681 31.333 C 167.695 31.333,166.839 31.383,166.778 31.444 M332.708 31.449 L 331.333 31.513 331.333 32.064 C 331.333 32.368,331.285 33.302,331.225 34.141 L 331.117 35.667 333.367 35.667 C 336.734 35.667,338.689 36.686,339.098 38.657 C 339.147 38.891,339.257 39.214,339.343 39.373 C 339.432 39.536,339.500 42.017,339.500 45.081 L 339.500 50.500 341.474 50.500 L 343.447 50.500 343.557 47.104 C 343.677 43.376,343.528 37.704,343.307 37.567 C 343.230 37.519,343.167 37.308,343.167 37.097 C 343.167 36.385,342.126 34.665,341.158 33.777 C 339.161 31.945,336.684 31.262,332.708 31.449 M365.125 31.457 L 363.833 31.514 363.833 33.590 L 363.833 35.667 365.958 35.668 C 369.084 35.669,370.040 36.048,371.276 37.775 C 371.933 38.693,371.998 39.359,371.999 45.125 L 372.000 50.667 374.000 50.667 L 376.000 50.667 376.000 44.425 C 376.000 37.773,375.931 37.021,375.202 35.702 C 374.374 34.205,372.111 32.270,370.812 31.948 C 370.125 31.778,366.953 31.332,366.679 31.367 C 366.535 31.385,365.835 31.426,365.125 31.457 M387.262 31.481 C 387.211 31.562,386.925 31.675,386.626 31.731 C 384.426 32.144,381.293 35.346,380.736 37.750 C 380.673 38.025,380.544 38.347,380.451 38.466 C 380.108 38.899,380.241 42.483,380.643 43.667 C 381.195 45.294,383.003 48.167,383.474 48.167 C 383.536 48.167,383.773 48.337,384.002 48.546 C 385.511 49.926,390.650 51.048,391.690 50.225 C 391.815 50.127,392.138 49.993,392.408 49.928 C 392.679 49.863,393.339 49.553,393.876 49.238 C 394.984 48.589,395.092 48.564,395.232 48.930 C 395.383 49.325,395.354 51.410,395.195 51.592 C 395.119 51.679,394.971 52.050,394.867 52.417 C 393.930 55.714,388.443 56.145,385.677 53.138 L 384.937 52.333 382.998 52.333 L 381.060 52.333 381.412 53.375 C 383.835 60.533,396.999 60.625,398.824 53.497 C 398.929 53.086,399.095 52.546,399.193 52.297 C 399.310 51.997,399.378 48.398,399.393 41.672 L 399.417 31.500 397.375 31.500 L 395.333 31.500 395.333 32.157 C 395.333 33.064,395.208 33.084,393.709 32.425 C 392.986 32.107,392.078 31.796,391.693 31.735 C 391.308 31.673,390.952 31.558,390.903 31.478 C 390.785 31.287,387.380 31.290,387.262 31.481 M103.929 32.292 C 104.076 32.635,104.269 33.103,104.359 33.331 C 104.448 33.559,104.623 33.971,104.748 34.247 C 104.873 34.524,105.212 35.313,105.502 36.000 C 106.021 37.228,106.474 38.261,106.929 39.250 C 107.055 39.525,107.507 40.575,107.933 41.583 C 108.359 42.592,108.840 43.717,109.002 44.083 C 109.163 44.450,109.444 45.087,109.626 45.500 C 111.779 50.380,111.764 50.278,110.690 52.531 C 110.311 53.328,110.000 54.029,110.000 54.090 C 110.000 54.193,109.879 54.478,109.155 56.083 C 108.990 56.450,108.714 57.125,108.543 57.583 L 108.232 58.417 109.991 58.412 C 112.369 58.405,112.356 58.412,112.996 56.787 C 113.292 56.033,113.593 55.342,113.664 55.250 C 113.735 55.158,113.847 54.896,113.914 54.667 C 113.980 54.438,114.168 53.950,114.331 53.583 C 114.493 53.217,114.798 52.504,115.008 52.000 C 115.217 51.496,115.564 50.694,115.778 50.219 C 115.992 49.743,116.167 49.304,116.167 49.244 C 116.167 49.130,116.322 48.767,117.067 47.135 C 117.305 46.614,117.500 46.126,117.501 46.052 C 117.502 45.978,117.619 45.693,117.761 45.420 C 117.904 45.146,118.212 44.434,118.446 43.836 C 118.680 43.239,119.009 42.450,119.177 42.083 C 119.346 41.717,119.717 40.854,120.002 40.167 C 120.287 39.479,120.586 38.767,120.667 38.583 C 120.748 38.400,121.046 37.688,121.330 37.000 C 121.614 36.313,121.916 35.624,122.000 35.470 C 122.085 35.317,122.427 34.492,122.760 33.637 C 123.093 32.783,123.443 31.990,123.537 31.875 C 123.672 31.710,123.290 31.667,121.719 31.667 C 119.344 31.667,119.394 31.636,118.677 33.500 C 118.377 34.279,118.074 34.992,118.003 35.083 C 117.932 35.175,117.819 35.438,117.752 35.667 C 117.617 36.126,117.414 36.612,116.766 38.031 C 116.528 38.553,116.333 39.032,116.333 39.096 C 116.333 39.161,116.186 39.522,116.006 39.898 C 115.654 40.634,115.458 41.089,114.495 43.410 C 113.558 45.666,113.737 45.875,111.221 39.583 C 110.341 37.383,109.566 35.508,109.499 35.417 C 109.432 35.325,109.282 34.950,109.167 34.583 C 109.051 34.217,108.901 33.842,108.833 33.750 C 108.766 33.658,108.616 33.283,108.501 32.917 C 108.120 31.706,108.034 31.667,105.722 31.667 L 103.662 31.667 103.929 32.292 M255.833 41.083 L 255.833 50.500 257.750 50.500 L 259.667 50.500 259.667 41.083 L 259.667 31.667 257.750 31.667 L 255.833 31.667 255.833 41.083 M349.333 41.083 L 349.333 50.500 351.167 50.500 L 353.000 50.500 353.000 41.083 L 353.000 31.667 351.167 31.667 L 349.333 31.667 349.333 41.083 M155.083 35.665 C 158.801 37.392,159.529 42.860,156.409 45.624 C 154.058 47.707,150.951 47.708,148.591 45.627 C 145.642 43.027,146.206 37.171,149.536 35.824 C 149.837 35.702,150.124 35.543,150.174 35.471 C 150.581 34.886,153.667 35.008,155.083 35.665 M276.419 35.498 C 281.475 37.929,280.244 45.860,274.698 46.585 C 273.795 46.703,271.667 46.409,271.667 46.166 C 271.667 46.095,271.498 45.993,271.292 45.941 C 269.040 45.372,267.607 40.784,268.859 38.153 C 270.174 35.393,273.655 34.170,276.419 35.498 M392.615 35.590 C 397.850 38.633,395.956 46.581,390.000 46.565 C 387.641 46.558,385.356 45.040,384.809 43.116 C 384.700 42.731,384.548 42.345,384.472 42.258 C 384.275 42.033,384.300 39.374,384.500 39.250 C 384.592 39.193,384.667 39.025,384.667 38.876 C 384.667 38.051,385.961 36.333,386.976 35.811 C 387.218 35.686,387.457 35.530,387.507 35.463 C 387.975 34.838,391.471 34.924,392.615 35.590 M326.500 43.417 L 326.500 50.667 328.500 50.667 L 330.500 50.667 330.500 46.193 C 330.500 43.733,330.451 40.470,330.390 38.943 L 330.281 36.167 328.390 36.167 L 326.500 36.167 326.500 43.417 M359.167 43.333 L 359.167 50.500 361.083 50.500 L 363.000 50.500 363.000 43.333 L 363.000 36.167 361.083 36.167 L 359.167 36.167 359.167 43.333 " stroke="none" fill="#343434" fill-rule="evenodd"></path><path id="path3" d="M256.708 22.790 C 257.235 22.823,258.098 22.823,258.625 22.790 C 259.152 22.757,258.721 22.730,257.667 22.730 C 256.612 22.730,256.181 22.757,256.708 22.790 M83.792 22.958 C 85.190 22.986,87.477 22.986,88.875 22.958 C 90.273 22.930,89.129 22.907,86.333 22.907 C 83.537 22.907,82.394 22.930,83.792 22.958 M234.041 36.708 L 234.083 50.583 242.667 50.583 L 251.250 50.583 251.297 48.597 C 251.323 47.505,251.286 46.552,251.214 46.480 C 251.142 46.408,251.106 47.283,251.135 48.424 L 251.186 50.500 242.674 50.500 L 234.163 50.500 234.206 36.667 C 234.230 29.058,234.193 22.833,234.124 22.833 C 234.055 22.833,234.017 29.077,234.041 36.708 M144.301 25.084 C 144.273 26.230,144.306 27.167,144.375 27.167 C 144.444 27.167,144.500 26.229,144.500 25.083 C 144.500 22.389,144.367 22.389,144.301 25.084 M316.403 28.250 C 316.403 29.992,316.428 30.682,316.458 29.783 C 316.488 28.884,316.488 27.459,316.457 26.616 C 316.427 25.773,316.403 26.508,316.403 28.250 M312.369 29.120 L 312.333 31.323 310.292 31.375 L 308.250 31.428 310.297 31.464 C 312.719 31.507,312.528 31.726,312.458 28.991 L 312.405 26.917 312.369 29.120 M87.792 27.287 C 88.090 27.324,88.577 27.324,88.875 27.287 C 89.173 27.250,88.929 27.220,88.333 27.220 C 87.737 27.220,87.494 27.250,87.792 27.287 M91.292 27.284 C 91.498 27.324,91.835 27.324,92.042 27.284 C 92.248 27.245,92.079 27.212,91.667 27.212 C 91.254 27.212,91.085 27.245,91.292 27.284 M125.749 27.290 L 130.331 27.339 130.376 38.878 L 130.420 50.417 130.418 38.833 L 130.417 27.250 125.792 27.246 L 121.167 27.242 125.749 27.290 M134.874 38.870 L 134.833 50.657 132.625 50.709 L 130.417 50.761 132.630 50.797 C 134.275 50.824,134.864 50.780,134.923 50.625 C 134.967 50.510,134.983 45.167,134.959 38.750 L 134.914 27.083 134.874 38.870 M297.794 30.951 C 298.001 30.991,298.301 30.990,298.460 30.948 C 298.620 30.906,298.450 30.874,298.083 30.875 C 297.717 30.877,297.586 30.911,297.794 30.951 M151.796 31.122 C 152.188 31.157,152.788 31.157,153.129 31.121 C 153.471 31.085,153.150 31.057,152.417 31.057 C 151.683 31.058,151.404 31.087,151.796 31.122 M188.125 31.122 C 188.515 31.157,189.152 31.157,189.542 31.122 C 189.931 31.087,189.612 31.058,188.833 31.058 C 188.054 31.058,187.735 31.087,188.125 31.122 M210.042 31.115 C 210.202 31.157,210.465 31.157,210.625 31.115 C 210.785 31.073,210.654 31.039,210.333 31.039 C 210.012 31.039,209.881 31.073,210.042 31.115 M274.542 31.115 C 274.702 31.157,274.965 31.157,275.125 31.115 C 275.285 31.073,275.154 31.039,274.833 31.039 C 274.512 31.039,274.381 31.073,274.542 31.115 M388.708 31.115 C 388.869 31.157,389.131 31.157,389.292 31.115 C 389.452 31.073,389.321 31.039,389.000 31.039 C 388.679 31.039,388.548 31.073,388.708 31.115 M96.723 32.333 C 96.723 33.021,96.752 33.302,96.788 32.958 C 96.824 32.615,96.824 32.052,96.788 31.708 C 96.752 31.365,96.723 31.646,96.723 32.333 M101.385 32.083 C 101.386 32.633,101.417 32.838,101.454 32.539 C 101.491 32.239,101.490 31.789,101.452 31.539 C 101.414 31.288,101.384 31.533,101.385 32.083 M166.415 41.000 L 166.417 50.583 168.583 50.583 L 170.750 50.583 170.754 45.792 L 170.758 41.000 170.710 45.750 L 170.662 50.500 168.582 50.500 L 166.503 50.500 166.458 40.958 L 166.413 31.417 166.415 41.000 M170.705 31.833 C 170.705 32.154,170.740 32.285,170.782 32.125 C 170.823 31.965,170.823 31.702,170.782 31.542 C 170.740 31.381,170.705 31.512,170.705 31.833 M177.728 33.000 C 177.728 33.962,177.756 34.356,177.790 33.875 C 177.823 33.394,177.823 32.606,177.790 32.125 C 177.756 31.644,177.728 32.037,177.728 33.000 M255.576 31.542 C 255.533 31.656,255.516 35.987,255.540 41.167 L 255.583 50.583 257.750 50.583 L 259.917 50.583 259.919 41.083 L 259.921 31.583 259.876 41.042 L 259.831 50.500 257.749 50.500 L 255.667 50.500 255.667 41.005 L 255.667 31.510 257.792 31.458 L 259.917 31.406 257.786 31.370 C 256.208 31.343,255.636 31.387,255.576 31.542 M280.208 31.457 C 280.827 31.489,281.840 31.489,282.458 31.457 C 283.077 31.425,282.571 31.399,281.333 31.399 C 280.096 31.399,279.590 31.425,280.208 31.457 M331.069 31.560 C 331.021 31.685,331.006 32.229,331.035 32.769 L 331.088 33.750 331.169 32.541 C 331.250 31.328,331.231 31.139,331.069 31.560 M349.667 31.444 C 351.485 31.566,353.296 31.573,353.225 31.458 C 353.182 31.390,352.195 31.347,351.032 31.363 C 349.868 31.380,349.254 31.416,349.667 31.444 M399.578 41.417 C 399.578 47.008,399.599 49.272,399.625 46.446 C 399.651 43.621,399.651 39.046,399.625 36.280 C 399.599 33.513,399.578 35.825,399.578 41.417 M119.065 31.922 C 118.913 32.154,118.818 32.374,118.856 32.411 C 118.893 32.448,119.049 32.258,119.204 31.989 C 119.548 31.390,119.446 31.340,119.065 31.922 M363.565 33.583 C 363.565 34.775,363.592 35.241,363.624 34.618 C 363.656 33.996,363.656 33.021,363.623 32.451 C 363.591 31.882,363.564 32.392,363.565 33.583 M308.195 33.282 C 308.179 34.216,308.223 35.015,308.292 35.058 C 308.360 35.101,308.396 34.599,308.371 33.943 C 308.289 31.799,308.223 31.552,308.195 33.282 M279.023 32.375 C 278.996 32.909,278.902 32.937,278.430 32.548 C 278.135 32.305,278.139 32.323,278.456 32.666 C 278.891 33.137,279.241 32.950,279.120 32.311 C 279.052 31.949,279.044 31.954,279.023 32.375 M303.667 33.250 C 303.978 33.571,304.270 33.833,304.315 33.833 C 304.361 33.833,304.144 33.571,303.833 33.250 C 303.522 32.929,303.230 32.667,303.185 32.667 C 303.139 32.667,303.356 32.929,303.667 33.250 M195.417 33.667 C 195.775 34.033,196.105 34.333,196.151 34.333 C 196.197 34.333,195.941 34.033,195.583 33.667 C 195.225 33.300,194.895 33.000,194.849 33.000 C 194.803 33.000,195.059 33.300,195.417 33.667 M181.909 33.875 L 181.250 34.583 181.958 33.925 C 182.617 33.312,182.743 33.167,182.617 33.167 C 182.590 33.167,182.271 33.485,181.909 33.875 M341.493 33.875 C 341.902 34.310,342.258 34.667,342.285 34.667 C 342.410 34.667,342.278 34.517,341.542 33.826 L 340.750 33.083 341.493 33.875 M144.906 34.208 L 144.417 34.750 144.958 34.260 C 145.256 33.991,145.500 33.748,145.500 33.719 C 145.500 33.590,145.362 33.703,144.906 34.208 M296.708 35.115 C 296.869 35.157,297.131 35.157,297.292 35.115 C 297.452 35.073,297.321 35.039,297.000 35.039 C 296.679 35.039,296.548 35.073,296.708 35.115 M151.961 35.287 C 152.261 35.325,152.711 35.324,152.961 35.286 C 153.212 35.248,152.967 35.217,152.417 35.218 C 151.867 35.219,151.662 35.250,151.961 35.287 M175.375 35.288 C 175.719 35.324,176.281 35.324,176.625 35.288 C 176.969 35.252,176.688 35.223,176.000 35.223 C 175.313 35.223,175.031 35.252,175.375 35.288 M188.625 35.287 C 188.923 35.324,189.410 35.324,189.708 35.287 C 190.006 35.250,189.762 35.220,189.167 35.220 C 188.571 35.220,188.327 35.250,188.625 35.287 M209.544 35.286 C 209.797 35.325,210.172 35.324,210.377 35.284 C 210.582 35.244,210.375 35.213,209.917 35.214 C 209.458 35.216,209.291 35.248,209.544 35.286 M334.044 35.786 C 334.297 35.825,334.672 35.824,334.877 35.784 C 335.082 35.744,334.875 35.713,334.417 35.714 C 333.958 35.716,333.791 35.748,334.044 35.786 M366.625 35.784 C 366.831 35.824,367.169 35.824,367.375 35.784 C 367.581 35.745,367.412 35.712,367.000 35.712 C 366.587 35.712,366.419 35.745,366.625 35.784 M312.072 39.750 C 312.072 41.950,312.096 42.827,312.125 41.699 C 312.153 40.571,312.153 38.771,312.124 37.699 C 312.095 36.627,312.072 37.550,312.072 39.750 M316.405 40.000 C 316.405 42.246,316.429 43.165,316.458 42.042 C 316.487 40.919,316.487 39.081,316.458 37.958 C 316.429 36.835,316.405 37.754,316.405 40.000 M328.494 36.122 L 330.489 36.177 330.545 38.005 L 330.600 39.834 330.592 37.959 L 330.583 36.083 328.541 36.075 L 326.499 36.067 328.494 36.122 M358.912 36.203 C 358.867 36.321,358.849 39.642,358.873 43.583 L 358.917 50.750 361.042 50.758 L 363.167 50.766 361.084 50.711 L 359.000 50.657 359.000 43.412 L 359.000 36.167 361.082 36.167 L 363.163 36.167 363.209 43.375 L 363.255 50.583 363.253 43.333 L 363.250 36.083 361.122 36.037 C 359.512 36.001,358.973 36.042,358.912 36.203 M385.991 36.792 L 385.417 37.417 386.042 36.842 C 386.623 36.308,386.743 36.167,386.616 36.167 C 386.588 36.167,386.307 36.448,385.991 36.792 M148.324 36.958 L 147.750 37.583 148.375 37.009 C 148.957 36.474,149.077 36.333,148.949 36.333 C 148.922 36.333,148.640 36.615,148.324 36.958 M156.000 36.385 C 156.000 36.414,156.244 36.658,156.542 36.927 L 157.083 37.417 156.594 36.875 C 156.138 36.370,156.000 36.257,156.000 36.385 M370.417 37.167 C 370.775 37.533,371.105 37.833,371.151 37.833 C 371.197 37.833,370.941 37.533,370.583 37.167 C 370.225 36.800,369.895 36.500,369.849 36.500 C 369.803 36.500,370.059 36.800,370.417 37.167 M87.467 37.458 C 88.412 37.488,89.912 37.487,90.801 37.457 C 91.689 37.428,90.917 37.403,89.083 37.403 C 87.250 37.404,86.523 37.428,87.467 37.458 M183.852 38.685 C 183.749 38.980,183.694 39.250,183.730 39.286 C 183.766 39.321,183.879 39.109,183.981 38.815 C 184.084 38.520,184.139 38.250,184.103 38.214 C 184.068 38.179,183.955 38.391,183.852 38.685 M214.073 43.333 C 214.073 45.946,214.096 47.015,214.125 45.708 C 214.153 44.402,214.153 42.265,214.125 40.958 C 214.096 39.652,214.073 40.721,214.073 43.333 M301.247 44.667 L 301.250 50.583 303.500 50.591 L 305.750 50.599 303.544 50.545 L 301.338 50.490 301.291 44.620 L 301.244 38.750 301.247 44.667 M376.242 44.667 C 376.242 48.012,376.264 49.381,376.291 47.708 C 376.319 46.035,376.319 43.298,376.291 41.625 C 376.264 39.952,376.242 41.321,376.242 44.667 M205.564 40.833 C 205.564 41.979,205.591 42.448,205.623 41.875 C 205.656 41.302,205.656 40.365,205.623 39.792 C 205.591 39.219,205.564 39.688,205.564 40.833 M292.706 44.620 L 292.667 50.490 290.458 50.542 L 288.250 50.594 290.464 50.630 C 292.114 50.657,292.698 50.613,292.757 50.457 C 292.802 50.342,292.817 47.661,292.792 44.499 L 292.745 38.750 292.706 44.620 M343.706 44.953 L 343.667 50.657 341.458 50.709 L 339.250 50.761 341.464 50.797 C 343.115 50.824,343.698 50.780,343.758 50.624 C 343.802 50.509,343.817 47.902,343.792 44.832 L 343.745 39.250 343.706 44.953 M380.060 40.833 C 380.060 41.704,380.088 42.060,380.123 41.625 C 380.157 41.190,380.157 40.477,380.123 40.042 C 380.088 39.606,380.060 39.962,380.060 40.833 M395.388 40.750 C 395.389 41.392,395.419 41.634,395.455 41.288 C 395.491 40.942,395.490 40.417,395.454 40.121 C 395.417 39.825,395.387 40.108,395.388 40.750 M279.383 40.833 C 279.383 41.337,279.415 41.544,279.453 41.292 C 279.491 41.040,279.491 40.627,279.453 40.375 C 279.415 40.123,279.383 40.329,279.383 40.833 M371.908 45.417 C 371.908 48.350,371.930 49.527,371.958 48.031 C 371.986 46.536,371.986 44.136,371.958 42.698 C 371.930 41.260,371.908 42.483,371.908 45.417 M142.214 41.083 C 142.216 41.542,142.248 41.709,142.286 41.456 C 142.325 41.203,142.324 40.828,142.284 40.623 C 142.244 40.418,142.213 40.625,142.214 41.083 M158.214 41.083 C 158.216 41.542,158.248 41.709,158.286 41.456 C 158.325 41.203,158.324 40.828,158.284 40.623 C 158.244 40.418,158.213 40.625,158.214 41.083 M178.875 41.083 C 178.877 41.450,178.911 41.580,178.951 41.373 C 178.991 41.166,178.990 40.866,178.948 40.706 C 178.906 40.547,178.874 40.717,178.875 41.083 M218.567 42.917 C 218.567 44.292,218.593 44.832,218.624 44.117 C 218.655 43.403,218.655 42.278,218.624 41.617 C 218.592 40.957,218.566 41.542,218.567 42.917 M91.792 41.618 C 91.998 41.657,92.335 41.657,92.542 41.618 C 92.748 41.578,92.579 41.545,92.167 41.545 C 91.754 41.545,91.585 41.578,91.792 41.618 M277.740 44.875 L 277.250 45.417 277.792 44.927 C 278.090 44.658,278.333 44.414,278.333 44.385 C 278.333 44.257,278.196 44.370,277.740 44.875 M264.667 44.564 C 264.667 44.743,265.163 45.667,265.259 45.667 C 265.304 45.667,265.218 45.423,265.066 45.125 C 264.757 44.517,264.667 44.390,264.667 44.564 M148.000 44.885 C 148.000 44.914,148.244 45.158,148.542 45.427 L 149.083 45.917 148.594 45.375 C 148.138 44.870,148.000 44.757,148.000 44.885 M273.544 46.453 C 273.797 46.491,274.172 46.490,274.377 46.451 C 274.582 46.411,274.375 46.380,273.917 46.381 C 273.458 46.382,273.291 46.415,273.544 46.453 M389.542 46.453 C 389.794 46.491,390.206 46.491,390.458 46.453 C 390.710 46.415,390.504 46.383,390.000 46.383 C 389.496 46.383,389.290 46.415,389.542 46.453 M205.563 48.333 C 205.563 49.387,205.590 49.819,205.623 49.292 C 205.656 48.765,205.656 47.902,205.623 47.375 C 205.590 46.848,205.563 47.279,205.563 48.333 M145.083 48.167 C 145.441 48.533,145.772 48.833,145.818 48.833 C 145.863 48.833,145.608 48.533,145.250 48.167 C 144.892 47.800,144.562 47.500,144.516 47.500 C 144.470 47.500,144.725 47.800,145.083 48.167 M279.048 50.083 C 279.049 50.542,279.081 50.709,279.120 50.456 C 279.158 50.203,279.157 49.828,279.117 49.623 C 279.078 49.418,279.046 49.625,279.048 50.083 M81.145 50.542 C 81.312 50.754,81.584 50.825,82.145 50.804 L 82.917 50.775 82.170 50.709 C 81.759 50.673,81.309 50.555,81.170 50.447 C 80.949 50.275,80.946 50.287,81.145 50.542 M214.480 50.713 C 214.560 50.794,214.841 50.833,215.105 50.800 C 215.545 50.745,215.534 50.733,214.958 50.653 C 214.600 50.604,214.396 50.629,214.480 50.713 M272.460 50.618 C 272.668 50.658,272.968 50.656,273.127 50.615 C 273.286 50.573,273.117 50.540,272.750 50.542 C 272.383 50.544,272.253 50.578,272.460 50.618 M274.127 50.618 C 274.334 50.658,274.634 50.656,274.794 50.615 C 274.953 50.573,274.783 50.540,274.417 50.542 C 274.050 50.544,273.920 50.578,274.127 50.618 M350.049 50.624 C 350.671 50.656,351.646 50.656,352.215 50.623 C 352.784 50.591,352.275 50.564,351.083 50.565 C 349.892 50.565,349.426 50.592,350.049 50.624 M388.460 50.618 C 388.668 50.658,388.968 50.656,389.127 50.615 C 389.286 50.573,389.117 50.540,388.750 50.542 C 388.383 50.544,388.253 50.578,388.460 50.618 M390.208 50.615 C 390.369 50.657,390.631 50.657,390.792 50.615 C 390.952 50.573,390.821 50.539,390.500 50.539 C 390.179 50.539,390.048 50.573,390.208 50.615 M202.208 50.788 C 202.552 50.824,203.115 50.824,203.458 50.788 C 203.802 50.752,203.521 50.723,202.833 50.723 C 202.146 50.723,201.865 50.752,202.208 50.788 M318.625 50.784 C 318.831 50.824,319.169 50.824,319.375 50.784 C 319.581 50.745,319.412 50.712,319.000 50.712 C 318.587 50.712,318.419 50.745,318.625 50.784 M152.127 51.118 C 152.334 51.158,152.634 51.156,152.794 51.115 C 152.953 51.073,152.783 51.040,152.417 51.042 C 152.050 51.044,151.920 51.078,152.127 51.118 M188.288 51.120 C 188.584 51.157,189.109 51.158,189.455 51.122 C 189.800 51.086,189.558 51.055,188.917 51.055 C 188.275 51.054,187.992 51.083,188.288 51.120 M266.121 52.287 C 266.417 52.324,266.942 52.324,267.288 52.288 C 267.634 52.252,267.392 52.222,266.750 52.221 C 266.108 52.221,265.825 52.250,266.121 52.287 M382.458 52.284 C 382.665 52.324,383.002 52.324,383.208 52.284 C 383.415 52.245,383.246 52.212,382.833 52.212 C 382.421 52.212,382.252 52.245,382.458 52.284 M281.158 56.458 L 280.583 57.083 281.208 56.509 C 281.552 56.193,281.833 55.912,281.833 55.884 C 281.833 55.757,281.692 55.877,281.158 56.458 M272.958 58.951 C 273.165 58.991,273.502 58.991,273.708 58.951 C 273.915 58.911,273.746 58.879,273.333 58.879 C 272.921 58.879,272.752 58.911,272.958 58.951 M275.127 58.951 C 275.334 58.991,275.634 58.990,275.794 58.948 C 275.953 58.906,275.783 58.874,275.417 58.875 C 275.050 58.877,274.920 58.911,275.127 58.951 M388.958 58.951 C 389.165 58.991,389.502 58.991,389.708 58.951 C 389.915 58.911,389.746 58.879,389.333 58.879 C 388.921 58.879,388.752 58.911,388.958 58.951 M391.208 58.948 C 391.369 58.990,391.631 58.990,391.792 58.948 C 391.952 58.906,391.821 58.872,391.500 58.872 C 391.179 58.872,391.048 58.906,391.208 58.948 " stroke="none" fill="#9c9c9c" fill-rule="evenodd"></path><path id="path4" d="M202.292 23.123 C 202.865 23.156,203.802 23.156,204.375 23.123 C 204.948 23.091,204.479 23.064,203.333 23.064 C 202.188 23.064,201.719 23.091,202.292 23.123 M255.731 25.000 C 255.731 26.146,255.758 26.615,255.790 26.042 C 255.823 25.469,255.823 24.531,255.790 23.958 C 255.758 23.385,255.731 23.854,255.731 25.000 M349.063 25.000 C 349.063 26.054,349.090 26.485,349.123 25.958 C 349.156 25.431,349.156 24.569,349.123 24.042 C 349.090 23.515,349.063 23.946,349.063 25.000 M85.574 32.333 C 85.574 35.129,85.597 36.273,85.625 34.875 C 85.653 33.477,85.653 31.190,85.625 29.792 C 85.597 28.394,85.574 29.537,85.574 32.333 M297.794 31.118 C 298.001 31.158,298.301 31.156,298.460 31.115 C 298.620 31.073,298.450 31.040,298.083 31.042 C 297.717 31.044,297.586 31.078,297.794 31.118 M321.563 33.167 C 321.563 34.221,321.590 34.652,321.623 34.125 C 321.656 33.598,321.656 32.735,321.623 32.208 C 321.590 31.681,321.563 32.112,321.563 33.167 M331.875 31.455 C 332.219 31.491,332.781 31.491,333.125 31.455 C 333.469 31.419,333.188 31.389,332.500 31.389 C 331.813 31.389,331.531 31.419,331.875 31.455 M364.288 31.454 C 364.584 31.490,365.109 31.491,365.455 31.455 C 365.800 31.419,365.558 31.389,364.917 31.388 C 364.275 31.387,363.992 31.417,364.288 31.454 M395.224 31.591 C 395.170 31.732,395.172 31.894,395.229 31.952 C 395.287 32.009,395.333 31.933,395.333 31.783 C 395.333 31.547,395.623 31.503,397.458 31.458 L 399.583 31.406 397.453 31.370 C 395.664 31.339,395.307 31.375,395.224 31.591 M331.205 32.167 C 331.205 32.487,331.240 32.619,331.282 32.458 C 331.323 32.298,331.323 32.035,331.282 31.875 C 331.240 31.715,331.205 31.846,331.205 32.167 M349.078 41.083 C 349.078 46.308,349.099 48.422,349.125 45.780 C 349.151 43.138,349.151 38.863,349.125 36.280 C 349.099 33.697,349.078 35.858,349.078 41.083 M283.410 40.833 C 283.410 44.729,283.431 46.323,283.458 44.375 C 283.485 42.427,283.485 39.240,283.458 37.292 C 283.431 35.344,283.410 36.938,283.410 40.833 M305.575 44.250 C 305.575 47.642,305.598 49.006,305.625 47.281 C 305.652 45.556,305.652 42.781,305.625 41.114 C 305.598 39.447,305.575 40.858,305.575 44.250 M384.383 40.667 C 384.383 41.171,384.415 41.377,384.453 41.125 C 384.491 40.873,384.491 40.460,384.453 40.208 C 384.415 39.956,384.383 40.162,384.383 40.667 M279.542 40.750 C 279.544 41.117,279.578 41.247,279.618 41.040 C 279.658 40.832,279.656 40.532,279.615 40.373 C 279.573 40.214,279.540 40.383,279.542 40.750 M183.381 41.083 C 183.382 41.542,183.415 41.709,183.453 41.456 C 183.491 41.203,183.490 40.828,183.451 40.623 C 183.411 40.418,183.380 40.625,183.381 41.083 M179.039 41.000 C 179.039 41.321,179.073 41.452,179.115 41.292 C 179.157 41.131,179.157 40.869,179.115 40.708 C 179.073 40.548,179.039 40.679,179.039 41.000 M85.575 41.711 C 85.531 41.827,85.514 43.871,85.539 46.253 L 85.584 50.583 85.667 46.042 C 85.713 43.544,85.729 41.500,85.703 41.500 C 85.677 41.500,85.620 41.595,85.575 41.711 M312.218 44.583 C 312.219 45.133,312.250 45.338,312.287 45.039 C 312.325 44.739,312.324 44.289,312.286 44.039 C 312.248 43.788,312.217 44.033,312.218 44.583 M321.034 49.029 C 321.005 50.408,320.958 50.653,320.708 50.718 C 320.435 50.790,320.435 50.796,320.714 50.814 C 321.133 50.841,321.188 50.587,321.125 48.903 L 321.069 47.417 321.034 49.029 M218.392 49.167 C 218.392 49.946,218.420 50.265,218.455 49.875 C 218.490 49.485,218.490 48.848,218.455 48.458 C 218.420 48.069,218.392 48.387,218.392 49.167 M214.220 49.000 C 214.220 49.596,214.250 49.840,214.287 49.542 C 214.324 49.244,214.324 48.756,214.287 48.458 C 214.250 48.160,214.220 48.404,214.220 49.000 M131.715 50.624 C 132.338 50.656,133.313 50.656,133.882 50.623 C 134.451 50.591,133.942 50.564,132.750 50.565 C 131.558 50.565,131.093 50.592,131.715 50.624 " stroke="none" fill="#646464" fill-rule="evenodd"></path><path id="path5" d="M235.292 22.957 C 235.865 22.989,236.802 22.989,237.375 22.957 C 237.948 22.924,237.479 22.898,236.333 22.898 C 235.188 22.898,234.719 22.924,235.292 22.957 M290.497 22.955 L 292.495 23.010 292.543 28.047 L 292.591 33.083 292.587 28.000 L 292.583 22.917 290.541 22.909 L 288.499 22.901 290.497 22.955 M350.125 22.957 C 350.698 22.989,351.635 22.989,352.208 22.957 C 352.781 22.924,352.313 22.898,351.167 22.898 C 350.021 22.898,349.552 22.924,350.125 22.957 M120.898 25.000 C 120.898 26.146,120.924 26.615,120.957 26.042 C 120.989 25.469,120.989 24.531,120.957 23.958 C 120.924 23.385,120.898 23.854,120.898 25.000 M259.731 25.000 C 259.731 26.146,259.758 26.615,259.790 26.042 C 259.823 25.469,259.823 24.531,259.790 23.958 C 259.758 23.385,259.731 23.854,259.731 25.000 M353.230 25.000 C 353.230 26.054,353.257 26.485,353.290 25.958 C 353.323 25.431,353.323 24.569,353.290 24.042 C 353.257 23.515,353.230 23.946,353.230 25.000 M86.211 27.286 C 86.464 27.325,86.839 27.324,87.044 27.284 C 87.249 27.244,87.042 27.213,86.583 27.214 C 86.125 27.216,85.957 27.248,86.211 27.286 M353.245 41.083 C 353.245 46.308,353.266 48.422,353.292 45.780 C 353.317 43.138,353.317 38.863,353.292 36.280 C 353.266 33.697,353.245 35.858,353.245 41.083 M326.410 43.417 C 326.410 47.450,326.432 49.076,326.458 47.030 C 326.485 44.985,326.485 41.685,326.458 39.697 C 326.432 37.709,326.410 39.383,326.410 43.417 M343.539 38.833 C 343.539 39.154,343.573 39.285,343.615 39.125 C 343.657 38.965,343.657 38.702,343.615 38.542 C 343.573 38.381,343.539 38.512,343.539 38.833 M330.575 45.250 C 330.575 48.275,330.597 49.536,330.625 48.052 C 330.652 46.568,330.652 44.093,330.625 42.552 C 330.597 41.011,330.575 42.225,330.575 45.250 M88.632 41.624 C 89.208 41.656,90.108 41.656,90.632 41.623 C 91.155 41.590,90.683 41.563,89.583 41.564 C 88.483 41.564,88.055 41.591,88.632 41.624 M194.875 44.623 C 195.402 44.656,196.265 44.656,196.792 44.623 C 197.319 44.590,196.887 44.563,195.833 44.563 C 194.779 44.563,194.348 44.590,194.875 44.623 M241.708 46.458 C 243.427 46.485,246.240 46.485,247.958 46.458 C 249.677 46.431,248.271 46.409,244.833 46.409 C 241.396 46.409,239.990 46.431,241.708 46.458 M273.960 55.118 C 274.168 55.158,274.468 55.156,274.627 55.115 C 274.786 55.073,274.617 55.040,274.250 55.042 C 273.883 55.044,273.753 55.078,273.960 55.118 M389.960 55.118 C 390.168 55.158,390.468 55.156,390.627 55.115 C 390.786 55.073,390.617 55.040,390.250 55.042 C 389.883 55.044,389.753 55.078,389.960 55.118 M390.208 58.948 C 390.369 58.990,390.631 58.990,390.792 58.948 C 390.952 58.906,390.821 58.872,390.500 58.872 C 390.179 58.872,390.048 58.906,390.208 58.948 " stroke="none" fill="#8c8c8c" fill-rule="evenodd"></path><path id="path6" d="M238.372 34.615 C 238.351 41.049,238.390 46.348,238.458 46.391 C 238.572 46.461,238.570 37.900,238.455 27.083 C 238.431 24.792,238.393 28.181,238.372 34.615 M201.249 36.903 C 201.250 49.044,201.280 50.731,201.500 50.790 C 201.684 50.841,201.695 50.820,201.543 50.712 C 201.381 50.597,201.326 47.551,201.291 36.824 L 201.247 23.083 201.249 36.903 M205.407 28.083 C 205.407 30.833,205.430 31.982,205.458 30.635 C 205.486 29.289,205.486 27.039,205.458 25.635 C 205.430 24.232,205.407 25.333,205.407 28.083 M137.302 27.125 C 138.614 27.153,140.714 27.153,141.968 27.125 C 143.223 27.096,142.150 27.073,139.583 27.073 C 137.017 27.073,135.990 27.096,137.302 27.125 M350.208 27.123 C 350.735 27.156,351.598 27.156,352.125 27.123 C 352.652 27.090,352.221 27.063,351.167 27.063 C 350.113 27.063,349.681 27.090,350.208 27.123 M273.375 31.115 C 273.535 31.157,273.798 31.157,273.958 31.115 C 274.119 31.073,273.987 31.039,273.667 31.039 C 273.346 31.039,273.215 31.073,273.375 31.115 M331.042 34.250 C 331.044 34.617,331.078 34.747,331.118 34.540 C 331.158 34.332,331.156 34.032,331.115 33.873 C 331.073 33.714,331.040 33.883,331.042 34.250 M309.208 35.123 C 309.644 35.157,310.356 35.157,310.792 35.123 C 311.227 35.088,310.871 35.060,310.000 35.060 C 309.129 35.060,308.773 35.088,309.208 35.123 M318.208 35.124 C 318.827 35.156,319.840 35.156,320.458 35.124 C 321.077 35.092,320.571 35.065,319.333 35.065 C 318.096 35.065,317.590 35.092,318.208 35.124 M170.712 40.000 C 170.712 40.412,170.745 40.581,170.784 40.375 C 170.824 40.169,170.824 39.831,170.784 39.625 C 170.745 39.419,170.712 39.587,170.712 40.000 M264.052 40.750 C 264.053 41.300,264.084 41.505,264.121 41.205 C 264.158 40.906,264.157 40.456,264.119 40.205 C 264.081 39.955,264.051 40.200,264.052 40.750 M395.542 40.750 C 395.544 41.117,395.578 41.247,395.618 41.040 C 395.658 40.832,395.656 40.532,395.615 40.373 C 395.573 40.214,395.540 40.383,395.542 40.750 M86.295 41.621 C 86.594 41.658,87.044 41.657,87.295 41.619 C 87.545 41.581,87.300 41.551,86.750 41.552 C 86.200 41.553,85.995 41.584,86.295 41.621 M205.396 44.667 C 205.396 45.721,205.423 46.152,205.456 45.625 C 205.490 45.098,205.490 44.235,205.456 43.708 C 205.423 43.181,205.396 43.612,205.396 44.667 M319.377 46.953 C 319.631 46.991,320.006 46.990,320.211 46.951 C 320.416 46.911,320.208 46.880,319.750 46.881 C 319.292 46.882,319.124 46.915,319.377 46.953 M152.125 47.118 C 152.331 47.157,152.669 47.157,152.875 47.118 C 153.081 47.078,152.912 47.045,152.500 47.045 C 152.087 47.045,151.919 47.078,152.125 47.118 M83.544 50.786 C 83.797 50.825,84.172 50.824,84.377 50.784 C 84.582 50.744,84.375 50.713,83.917 50.714 C 83.458 50.716,83.291 50.748,83.544 50.786 M204.208 50.782 C 204.369 50.823,204.631 50.823,204.792 50.782 C 204.952 50.740,204.821 50.705,204.500 50.705 C 204.179 50.705,204.048 50.740,204.208 50.782 M216.292 50.787 C 216.590 50.824,217.077 50.824,217.375 50.787 C 217.673 50.750,217.429 50.720,216.833 50.720 C 216.237 50.720,215.994 50.750,216.292 50.787 M327.458 50.790 C 328.031 50.823,328.969 50.823,329.542 50.790 C 330.115 50.758,329.646 50.731,328.500 50.731 C 327.354 50.731,326.885 50.758,327.458 50.790 M372.958 50.790 C 373.531 50.823,374.469 50.823,375.042 50.790 C 375.615 50.758,375.146 50.731,374.000 50.731 C 372.854 50.731,372.385 50.758,372.958 50.790 M109.042 58.621 C 109.385 58.657,109.948 58.657,110.292 58.621 C 110.635 58.585,110.354 58.556,109.667 58.556 C 108.979 58.556,108.698 58.585,109.042 58.621 " stroke="none" fill="#7c7c7c" fill-rule="evenodd"></path><path id="path7" d="M256.708 22.956 C 257.235 22.990,258.098 22.990,258.625 22.956 C 259.152 22.923,258.721 22.896,257.667 22.896 C 256.612 22.896,256.181 22.923,256.708 22.956 M288.413 36.750 C 288.413 44.358,288.433 47.495,288.458 43.721 C 288.483 39.946,288.483 33.721,288.458 29.887 C 288.433 26.054,288.413 29.142,288.413 36.750 M81.079 37.000 C 81.079 44.288,81.100 47.269,81.125 43.625 C 81.150 39.981,81.150 34.019,81.125 30.375 C 81.100 26.731,81.079 29.712,81.079 37.000 M89.792 27.118 C 89.998 27.157,90.335 27.157,90.542 27.118 C 90.748 27.078,90.579 27.045,90.167 27.045 C 89.754 27.045,89.585 27.078,89.792 27.118 M256.708 27.123 C 257.235 27.156,258.098 27.156,258.625 27.123 C 259.152 27.090,258.721 27.063,257.667 27.063 C 256.612 27.063,256.181 27.090,256.708 27.123 M312.565 29.250 C 312.565 30.442,312.592 30.907,312.624 30.285 C 312.656 29.662,312.656 28.687,312.623 28.118 C 312.591 27.549,312.564 28.058,312.565 29.250 M104.542 31.623 C 105.069 31.656,105.931 31.656,106.458 31.623 C 106.985 31.590,106.554 31.563,105.500 31.563 C 104.446 31.563,104.015 31.590,104.542 31.623 M120.625 31.623 C 121.198 31.656,122.135 31.656,122.708 31.623 C 123.281 31.591,122.813 31.564,121.667 31.564 C 120.521 31.564,120.052 31.591,120.625 31.623 M166.578 41.083 C 166.578 46.308,166.599 48.422,166.625 45.780 C 166.651 43.138,166.651 38.863,166.625 36.280 C 166.599 33.697,166.578 35.858,166.578 41.083 M255.745 41.083 C 255.745 46.308,255.766 48.422,255.792 45.780 C 255.817 43.138,255.817 38.863,255.792 36.280 C 255.766 33.697,255.745 35.858,255.745 41.083 M259.745 41.083 C 259.745 46.308,259.766 48.422,259.792 45.780 C 259.817 43.138,259.817 38.863,259.792 36.280 C 259.766 33.697,259.745 35.858,259.745 41.083 M308.395 33.333 C 308.395 34.296,308.423 34.690,308.456 34.208 C 308.490 33.727,308.490 32.940,308.456 32.458 C 308.423 31.977,308.395 32.371,308.395 33.333 M96.872 32.333 C 96.872 32.654,96.906 32.785,96.948 32.625 C 96.990 32.465,96.990 32.202,96.948 32.042 C 96.906 31.881,96.872 32.012,96.872 32.333 M399.409 41.333 C 399.409 45.046,399.431 46.565,399.458 44.708 C 399.485 42.852,399.485 39.815,399.458 37.958 C 399.431 36.102,399.409 37.621,399.409 41.333 M188.792 35.118 C 188.998 35.157,189.335 35.157,189.542 35.118 C 189.748 35.078,189.579 35.045,189.167 35.045 C 188.754 35.045,188.585 35.078,188.792 35.118 M359.076 43.333 C 359.076 47.321,359.098 48.952,359.125 46.958 C 359.151 44.965,359.151 41.702,359.125 39.708 C 359.098 37.715,359.076 39.346,359.076 43.333 M363.076 43.333 C 363.076 47.321,363.098 48.952,363.125 46.958 C 363.151 44.965,363.151 41.702,363.125 39.708 C 363.098 37.715,363.076 39.346,363.076 43.333 M88.958 37.622 C 89.348 37.657,89.985 37.657,90.375 37.622 C 90.765 37.587,90.446 37.558,89.667 37.558 C 88.888 37.558,88.569 37.587,88.958 37.622 M194.625 37.623 C 195.198 37.656,196.135 37.656,196.708 37.623 C 197.281 37.591,196.813 37.564,195.667 37.564 C 194.521 37.564,194.052 37.591,194.625 37.623 M343.553 40.500 C 343.553 41.096,343.584 41.340,343.621 41.042 C 343.658 40.744,343.658 40.256,343.621 39.958 C 343.584 39.660,343.553 39.904,343.553 40.500 M205.392 41.333 C 205.392 42.112,205.420 42.431,205.455 42.042 C 205.490 41.652,205.490 41.015,205.455 40.625 C 205.420 40.235,205.392 40.554,205.392 41.333 M339.408 45.250 C 339.408 48.183,339.430 49.360,339.458 47.865 C 339.486 46.369,339.486 43.969,339.458 42.531 C 339.430 41.093,339.408 42.317,339.408 45.250 M292.574 45.500 C 292.574 48.296,292.597 49.440,292.625 48.042 C 292.653 46.644,292.653 44.356,292.625 42.958 C 292.597 41.560,292.574 42.704,292.574 45.500 M343.565 48.333 C 343.565 49.571,343.592 50.077,343.624 49.458 C 343.656 48.840,343.656 47.827,343.624 47.208 C 343.592 46.590,343.565 47.096,343.565 48.333 M273.627 46.618 C 273.834 46.658,274.134 46.656,274.294 46.615 C 274.453 46.573,274.283 46.540,273.917 46.542 C 273.550 46.544,273.420 46.578,273.627 46.618 M389.627 46.618 C 389.834 46.658,390.134 46.656,390.294 46.615 C 390.453 46.573,390.283 46.540,389.917 46.542 C 389.550 46.544,389.420 46.578,389.627 46.618 M205.396 48.417 C 205.396 49.425,205.424 49.816,205.457 49.286 C 205.490 48.755,205.490 47.930,205.456 47.452 C 205.422 46.974,205.395 47.408,205.396 48.417 M395.214 50.250 C 395.216 50.708,395.248 50.876,395.286 50.623 C 395.325 50.369,395.324 49.994,395.284 49.789 C 395.244 49.584,395.213 49.792,395.214 50.250 M234.276 50.375 C 234.318 50.444,238.094 50.500,242.667 50.500 C 247.239 50.500,251.015 50.444,251.058 50.375 C 251.100 50.306,247.324 50.250,242.667 50.250 C 238.009 50.250,234.233 50.306,234.276 50.375 " stroke="none" fill="#5c5c5c" fill-rule="evenodd"></path><path id="path8" d="M92.667 23.164 C 92.804 23.254,93.098 23.329,93.319 23.331 C 93.854 23.334,93.719 23.239,93.000 23.108 C 92.590 23.032,92.491 23.049,92.667 23.164 M349.242 24.958 L 349.250 26.917 351.167 26.917 L 353.083 26.917 353.092 24.958 L 353.100 22.999 353.045 24.916 L 352.989 26.833 351.167 26.833 L 349.344 26.833 349.289 24.916 L 349.233 22.999 349.242 24.958 M121.075 25.125 L 121.083 27.083 125.833 27.087 L 130.583 27.091 125.880 27.043 L 121.177 26.995 121.122 25.080 L 121.067 23.166 121.075 25.125 M144.202 24.956 L 144.167 26.828 139.542 26.875 L 134.917 26.922 139.547 26.961 C 143.252 26.992,144.194 26.956,144.261 26.780 C 144.308 26.660,144.321 25.778,144.291 24.822 L 144.237 23.083 144.202 24.956 M202.292 23.290 C 202.865 23.323,203.802 23.323,204.375 23.290 C 204.948 23.258,204.479 23.231,203.333 23.231 C 202.188 23.231,201.719 23.258,202.292 23.290 M234.246 36.667 C 234.246 44.137,234.267 47.194,234.292 43.458 C 234.317 39.723,234.317 33.610,234.292 29.875 C 234.267 26.140,234.246 29.196,234.246 36.667 M85.609 27.125 C 85.566 27.194,86.143 27.230,86.890 27.205 C 89.340 27.124,89.617 27.059,87.635 27.029 C 86.563 27.013,85.651 27.056,85.609 27.125 M91.295 27.121 C 91.594 27.158,92.044 27.157,92.295 27.119 C 92.545 27.081,92.300 27.051,91.750 27.052 C 91.200 27.053,90.995 27.084,91.295 27.121 M310.500 31.500 L 308.417 31.599 310.448 31.633 C 311.661 31.653,312.522 31.599,312.583 31.500 C 312.640 31.408,312.663 31.349,312.635 31.367 C 312.607 31.386,311.646 31.445,310.500 31.500 M256.798 31.624 C 257.375 31.656,258.275 31.656,258.798 31.623 C 259.322 31.590,258.850 31.563,257.750 31.564 C 256.650 31.564,256.222 31.591,256.798 31.624 M280.298 31.624 C 280.875 31.656,281.775 31.656,282.298 31.623 C 282.822 31.590,282.350 31.563,281.250 31.564 C 280.150 31.564,279.722 31.591,280.298 31.624 M349.245 31.703 C 349.200 31.820,349.184 36.117,349.208 41.250 L 349.253 50.583 349.293 41.125 L 349.333 31.667 351.165 31.667 L 352.997 31.667 353.042 41.042 L 353.087 50.417 353.085 41.000 L 353.083 31.583 351.205 31.536 C 349.796 31.501,349.307 31.542,349.245 31.703 M363.731 33.583 C 363.732 34.775,363.758 35.241,363.790 34.618 C 363.823 33.996,363.822 33.021,363.790 32.451 C 363.757 31.882,363.731 32.392,363.731 33.583 M177.557 32.917 C 177.558 33.650,177.587 33.929,177.622 33.537 C 177.657 33.145,177.657 32.545,177.621 32.204 C 177.585 31.863,177.557 32.183,177.557 32.917 M331.205 33.167 C 331.205 33.487,331.240 33.619,331.282 33.458 C 331.323 33.298,331.323 33.035,331.282 32.875 C 331.240 32.715,331.205 32.846,331.205 33.167 M373.333 33.385 C 373.333 33.414,373.577 33.658,373.875 33.927 L 374.417 34.417 373.927 33.875 C 373.471 33.370,373.333 33.257,373.333 33.385 M159.500 34.083 C 159.811 34.404,160.103 34.667,160.149 34.667 C 160.195 34.667,159.978 34.404,159.667 34.083 C 159.356 33.762,159.064 33.500,159.018 33.500 C 158.972 33.500,159.189 33.762,159.500 34.083 M312.166 39.550 L 312.250 43.583 312.295 39.678 C 312.319 37.530,312.282 35.715,312.211 35.645 C 312.141 35.574,312.121 37.331,312.166 39.550 M330.396 38.000 C 330.396 39.054,330.423 39.485,330.456 38.958 C 330.490 38.431,330.490 37.569,330.456 37.042 C 330.423 36.515,330.396 36.946,330.396 38.000 M98.575 38.708 L 97.917 39.417 98.625 38.758 C 99.284 38.145,99.410 38.000,99.284 38.000 C 99.257 38.000,98.938 38.319,98.575 38.708 M218.169 38.514 C 218.171 38.827,218.240 39.192,218.324 39.325 C 218.423 39.481,218.444 39.304,218.382 38.825 C 218.265 37.904,218.166 37.760,218.169 38.514 M376.075 44.667 C 376.075 48.012,376.098 49.381,376.125 47.708 C 376.152 46.035,376.152 43.298,376.125 41.625 C 376.098 39.952,376.075 41.321,376.075 44.667 M170.574 45.667 C 170.574 48.371,170.597 49.477,170.625 48.125 C 170.653 46.773,170.653 44.560,170.625 43.208 C 170.597 41.856,170.574 42.962,170.574 45.667 M251.063 48.333 C 251.063 49.387,251.090 49.819,251.123 49.292 C 251.156 48.765,251.156 47.902,251.123 47.375 C 251.090 46.848,251.063 47.279,251.063 48.333 M319.377 47.120 C 319.631 47.158,320.006 47.157,320.211 47.117 C 320.416 47.078,320.208 47.046,319.750 47.048 C 319.292 47.049,319.124 47.081,319.377 47.120 M218.199 49.194 C 218.178 50.034,218.095 50.501,217.958 50.556 C 217.795 50.622,217.796 50.643,217.964 50.654 C 218.285 50.673,218.356 50.332,218.291 49.067 L 218.232 47.917 218.199 49.194 M214.650 50.550 C 214.727 50.627,215.044 50.665,215.354 50.633 C 215.903 50.576,215.899 50.573,215.213 50.492 C 214.825 50.446,214.572 50.472,214.650 50.550 M81.875 50.619 C 82.127 50.658,82.540 50.658,82.792 50.619 C 83.044 50.581,82.837 50.550,82.333 50.550 C 81.829 50.550,81.623 50.581,81.875 50.619 M202.208 50.621 C 202.552 50.657,203.115 50.657,203.458 50.621 C 203.802 50.585,203.521 50.556,202.833 50.556 C 202.146 50.556,201.865 50.585,202.208 50.621 M340.458 50.623 C 341.031 50.656,341.969 50.656,342.542 50.623 C 343.115 50.591,342.646 50.564,341.500 50.564 C 340.354 50.564,339.885 50.591,340.458 50.623 M360.132 50.624 C 360.708 50.656,361.608 50.656,362.132 50.623 C 362.655 50.590,362.183 50.563,361.083 50.564 C 359.983 50.564,359.555 50.591,360.132 50.624 M109.042 58.455 C 109.385 58.491,109.948 58.491,110.292 58.455 C 110.635 58.419,110.354 58.389,109.667 58.389 C 108.979 58.389,108.698 58.419,109.042 58.455 M111.417 58.500 L 110.917 58.627 111.365 58.647 C 111.612 58.658,111.860 58.592,111.917 58.500 C 111.973 58.408,111.996 58.342,111.968 58.353 C 111.940 58.364,111.692 58.430,111.417 58.500 " stroke="none" fill="#4c4c4c" fill-rule="evenodd"></path></g></svg>