<svg id="svg" version="1.1" xmlns="http://www.w3.org/2000/svg" xmlns:xlink="http://www.w3.org/1999/xlink" width="400" height="456.3176895306859" viewBox="0, 0, 400,456.3176895306859"><g id="svgg"><path id="path0" d="M195.600 0.400 C 195.600 0.620,194.721 0.800,193.647 0.800 C 191.999 0.800,191.659 0.931,191.474 1.640 C 191.344 2.137,191.068 2.366,190.800 2.200 C 190.532 2.034,190.256 2.263,190.126 2.760 C 189.957 3.408,189.592 3.600,188.530 3.600 C 187.772 3.600,187.242 3.744,187.350 3.919 C 187.711 4.503,186.941 5.240,185.848 5.356 C 185.255 5.419,184.560 5.680,184.304 5.936 C 184.049 6.191,183.606 6.400,183.320 6.400 C 183.034 6.400,182.800 6.760,182.800 7.200 C 182.800 7.848,182.533 8.000,181.400 8.000 C 180.252 8.000,180.000 8.149,180.000 8.825 C 180.000 9.371,179.763 9.626,179.300 9.579 C 177.677 9.414,176.800 9.632,176.800 10.200 C 176.800 10.751,176.553 10.845,174.805 10.962 C 174.478 10.984,174.150 11.316,174.076 11.701 C 174.002 12.085,173.600 12.400,173.183 12.400 C 172.689 12.400,172.502 12.600,172.645 12.974 C 172.809 13.400,172.470 13.580,171.333 13.674 C 170.293 13.759,169.800 13.993,169.800 14.400 C 169.800 14.805,169.310 15.040,168.288 15.125 C 167.130 15.221,166.802 15.407,166.888 15.925 C 166.974 16.441,166.648 16.629,165.500 16.724 C 164.519 16.805,164.000 17.047,164.000 17.424 C 164.000 17.741,163.640 18.000,163.200 18.000 C 162.667 18.000,162.400 18.267,162.400 18.800 C 162.400 19.442,162.133 19.600,161.047 19.600 C 160.047 19.600,159.641 19.801,159.492 20.371 C 159.366 20.851,159.008 21.097,158.545 21.023 C 157.674 20.882,156.711 21.532,157.028 22.045 C 157.149 22.240,156.787 22.400,156.224 22.400 C 155.467 22.400,155.200 22.608,155.200 23.200 C 155.200 23.848,154.933 24.000,153.800 24.000 C 152.822 24.000,152.400 24.181,152.400 24.600 C 152.400 25.019,151.978 25.200,151.000 25.200 C 149.867 25.200,149.600 25.352,149.600 26.000 C 149.600 26.642,149.333 26.800,148.247 26.800 C 147.202 26.800,146.842 26.994,146.671 27.652 C 146.522 28.221,146.241 28.424,145.824 28.265 C 145.389 28.098,145.200 28.264,145.200 28.813 C 145.200 29.446,144.926 29.600,143.800 29.600 C 142.667 29.600,142.400 29.752,142.400 30.400 C 142.400 31.049,142.133 31.200,140.987 31.200 C 140.101 31.200,139.489 31.423,139.345 31.800 C 139.218 32.130,138.864 32.400,138.557 32.400 C 138.251 32.400,137.997 32.625,137.994 32.900 C 137.990 33.234,137.862 33.202,137.611 32.803 C 137.304 32.318,137.138 32.302,136.720 32.720 C 136.302 33.138,136.318 33.304,136.803 33.611 C 137.262 33.900,137.145 33.989,136.300 33.994 C 135.473 33.998,135.200 34.196,135.200 34.791 C 135.200 35.454,134.958 35.567,133.700 35.491 C 132.467 35.416,132.221 35.524,132.318 36.100 C 132.411 36.655,132.147 36.800,131.044 36.800 C 130.005 36.800,129.590 37.002,129.400 37.600 C 129.211 38.195,128.795 38.400,127.773 38.400 C 126.819 38.400,126.400 38.583,126.400 39.000 C 126.400 39.330,126.130 39.600,125.800 39.600 C 125.467 39.600,125.200 39.956,125.200 40.400 C 125.200 41.063,124.933 41.200,123.647 41.200 C 122.405 41.200,122.049 41.369,121.874 42.040 C 121.753 42.503,121.462 42.762,121.227 42.617 C 120.992 42.472,120.800 42.556,120.800 42.803 C 120.800 43.072,120.477 43.151,120.000 43.000 C 119.432 42.820,119.200 42.928,119.200 43.373 C 119.200 43.733,118.860 44.000,118.400 44.000 C 117.867 44.000,117.600 44.267,117.600 44.800 C 117.600 45.448,117.333 45.600,116.200 45.600 C 115.222 45.600,114.800 45.781,114.800 46.200 C 114.800 46.619,114.378 46.800,113.400 46.800 C 112.630 46.800,112.021 46.935,112.047 47.100 C 112.205 48.101,111.872 48.400,110.600 48.400 C 109.467 48.400,109.200 48.552,109.200 49.200 C 109.200 49.640,109.065 49.979,108.900 49.953 C 108.075 49.822,107.600 50.059,107.600 50.600 C 107.600 51.004,107.196 51.200,106.363 51.200 C 105.462 51.200,105.068 51.417,104.916 52.000 C 104.759 52.601,104.370 52.800,103.353 52.800 C 102.240 52.800,102.000 52.951,102.000 53.650 C 102.000 54.382,101.832 54.466,100.797 54.259 C 99.868 54.074,99.483 54.198,99.101 54.809 C 98.830 55.244,98.381 55.600,98.104 55.600 C 97.827 55.600,97.600 55.960,97.600 56.400 C 97.600 57.048,97.333 57.200,96.200 57.200 C 95.222 57.200,94.800 57.381,94.800 57.800 C 94.800 58.168,94.426 58.400,93.833 58.400 C 92.483 58.400,91.600 58.794,91.600 59.396 C 91.600 59.677,91.285 60.018,90.900 60.154 C 90.515 60.289,89.930 60.504,89.600 60.631 C 89.067 60.835,89.067 60.814,89.600 60.437 C 90.021 60.138,90.048 60.010,89.690 60.006 C 89.410 60.003,89.009 60.450,88.800 61.000 C 88.591 61.550,88.315 62.000,88.186 62.000 C 88.058 62.000,88.063 61.822,88.197 61.605 C 88.335 61.381,88.182 61.309,87.846 61.438 C 87.518 61.563,87.348 61.921,87.468 62.233 C 87.634 62.666,87.296 62.800,86.043 62.800 C 84.667 62.800,84.400 62.930,84.400 63.600 C 84.400 64.248,84.133 64.400,83.000 64.400 C 82.022 64.400,81.600 64.581,81.600 65.000 C 81.600 65.522,80.568 65.830,79.466 65.636 C 79.282 65.604,79.036 65.942,78.919 66.389 C 78.726 67.128,78.315 67.376,77.500 67.247 C 77.335 67.221,77.200 67.542,77.200 67.960 C 77.200 68.564,76.942 68.702,75.943 68.633 C 75.020 68.569,74.636 68.739,74.497 69.273 C 74.360 69.795,73.925 70.000,72.953 70.000 C 71.867 70.000,71.600 70.158,71.600 70.800 C 71.600 71.333,71.333 71.600,70.800 71.600 C 70.356 71.600,70.000 71.867,70.000 72.200 C 70.000 72.604,69.596 72.800,68.763 72.800 C 67.862 72.800,67.468 73.017,67.316 73.600 C 67.159 74.201,66.770 74.400,65.753 74.400 C 64.653 74.400,64.400 74.554,64.400 75.225 C 64.400 75.771,64.163 76.026,63.700 75.979 C 62.240 75.831,61.600 76.020,61.600 76.600 C 61.600 76.933,61.244 77.200,60.800 77.200 C 60.267 77.200,60.000 77.467,60.000 78.000 C 60.000 78.648,59.733 78.800,58.600 78.800 C 57.648 78.800,57.200 78.984,57.200 79.376 C 57.200 79.753,56.681 79.995,55.700 80.076 C 54.559 80.170,54.213 80.367,54.256 80.900 C 54.295 81.403,54.013 81.602,53.256 81.606 C 52.127 81.613,51.173 82.065,51.066 82.645 C 51.030 82.840,50.849 82.950,50.666 82.889 C 50.482 82.827,50.236 83.142,50.119 83.589 C 49.960 84.195,49.576 84.400,48.600 84.400 C 47.630 84.400,47.239 84.606,47.084 85.200 C 46.924 85.813,46.538 86.000,45.437 86.000 C 44.426 86.000,44.000 86.178,44.000 86.600 C 44.000 86.930,43.655 87.200,43.233 87.200 C 42.041 87.200,41.200 87.631,41.200 88.243 C 41.200 88.549,40.924 88.800,40.587 88.800 C 40.250 88.800,39.845 89.149,39.687 89.576 C 39.529 90.003,39.265 90.363,39.100 90.376 C 38.935 90.389,38.350 90.400,37.800 90.400 C 37.178 90.400,36.800 90.627,36.800 91.000 C 36.800 91.519,35.545 91.844,34.300 91.647 C 34.135 91.621,34.000 91.960,34.000 92.400 C 34.000 93.048,33.733 93.200,32.600 93.200 C 31.451 93.200,31.200 93.349,31.200 94.027 C 31.200 94.672,31.024 94.798,30.400 94.600 C 29.776 94.402,29.600 94.528,29.600 95.173 C 29.600 95.851,29.349 96.000,28.200 96.000 C 27.067 96.000,26.800 96.152,26.800 96.800 C 26.800 97.448,26.533 97.600,25.400 97.600 C 24.422 97.600,24.000 97.781,24.000 98.200 C 24.000 98.530,23.653 98.800,23.229 98.800 C 22.805 98.800,22.376 99.115,22.276 99.500 C 22.102 100.167,22.091 100.167,22.046 99.500 C 21.983 98.547,21.342 98.614,21.084 99.600 C 20.969 100.040,20.609 100.400,20.284 100.400 C 19.959 100.400,19.593 100.782,19.471 101.249 C 19.291 101.937,19.017 102.064,18.025 101.918 C 17.053 101.776,16.800 101.884,16.800 102.445 C 16.800 102.973,16.420 103.183,15.300 103.276 C 14.129 103.373,13.826 103.554,13.918 104.100 C 14.011 104.655,13.747 104.800,12.641 104.800 C 11.311 104.800,10.345 105.382,11.201 105.667 C 11.425 105.742,11.227 106.040,10.762 106.331 C 10.297 106.621,10.036 106.666,10.182 106.430 C 10.328 106.193,10.278 106.000,10.070 106.000 C 9.863 106.000,9.599 106.360,9.484 106.800 C 9.325 107.406,8.938 107.600,7.884 107.600 C 6.801 107.600,6.444 107.789,6.271 108.452 C 6.122 109.021,5.841 109.224,5.424 109.065 C 4.594 108.746,3.600 109.155,3.600 109.816 C 3.600 110.107,3.249 110.457,2.820 110.594 C 2.349 110.743,2.129 111.070,2.263 111.420 C 2.414 111.814,2.214 112.000,1.643 112.000 C 1.160 112.000,0.800 112.257,0.800 112.600 C 0.800 112.930,0.620 113.200,0.400 113.200 C 0.134 113.200,0.000 151.467,0.000 227.200 C 0.000 302.933,0.134 341.200,0.400 341.200 C 0.620 341.200,0.800 341.830,0.800 342.600 C 0.800 343.578,0.981 344.000,1.400 344.000 C 1.730 344.000,2.000 344.287,2.000 344.637 C 2.000 344.988,2.343 345.365,2.763 345.474 C 3.183 345.584,3.616 346.017,3.726 346.437 C 3.868 346.980,4.281 347.200,5.163 347.200 C 5.996 347.200,6.400 347.396,6.400 347.800 C 6.400 348.130,6.739 348.400,7.153 348.400 C 7.578 348.400,8.001 348.760,8.122 349.225 C 8.241 349.678,8.577 350.017,8.869 349.977 C 10.097 349.811,10.800 350.037,10.800 350.600 C 10.800 351.033,11.244 351.200,12.400 351.200 C 13.733 351.200,14.000 351.333,14.000 352.000 C 14.000 352.648,14.267 352.800,15.400 352.800 C 16.533 352.800,16.800 352.952,16.800 353.600 C 16.800 354.133,17.067 354.400,17.600 354.400 C 18.040 354.400,18.355 354.625,18.300 354.900 C 18.237 355.213,18.765 355.447,19.712 355.525 C 20.870 355.621,21.198 355.807,21.112 356.325 C 21.026 356.841,21.352 357.029,22.500 357.124 C 23.481 357.205,24.000 357.447,24.000 357.824 C 24.000 358.216,24.448 358.400,25.400 358.400 C 26.533 358.400,26.800 358.552,26.800 359.200 C 26.800 359.733,27.067 360.000,27.600 360.000 C 28.040 360.000,28.400 360.251,28.400 360.557 C 28.400 361.169,29.241 361.600,30.433 361.600 C 30.855 361.600,31.200 361.870,31.200 362.200 C 31.200 362.619,31.622 362.800,32.600 362.800 C 33.733 362.800,34.000 362.952,34.000 363.600 C 34.000 364.248,34.267 364.400,35.400 364.400 C 36.414 364.400,36.800 364.576,36.800 365.037 C 36.800 365.388,37.160 365.769,37.600 365.884 C 38.040 365.999,38.400 366.342,38.400 366.647 C 38.400 367.012,38.875 367.200,39.800 367.200 C 40.933 367.200,41.200 367.352,41.200 368.000 C 41.200 368.440,41.335 368.779,41.500 368.753 C 42.745 368.556,44.000 368.881,44.000 369.400 C 44.000 369.833,44.444 370.000,45.600 370.000 C 46.933 370.000,47.200 370.133,47.200 370.800 C 47.200 371.244,47.467 371.600,47.800 371.600 C 48.130 371.600,48.400 371.850,48.400 372.155 C 48.400 372.474,48.998 372.823,49.800 372.974 C 50.605 373.125,51.200 373.473,51.200 373.794 C 51.200 374.150,51.743 374.397,52.700 374.476 C 53.696 374.558,54.163 374.780,54.089 375.134 C 54.027 375.428,54.342 375.764,54.789 375.881 C 55.235 375.998,55.600 376.342,55.600 376.647 C 55.600 377.009,56.068 377.200,56.953 377.200 C 57.970 377.200,58.359 377.399,58.516 378.000 C 58.667 378.578,59.062 378.800,59.936 378.800 C 60.791 378.800,61.220 379.033,61.397 379.592 C 61.536 380.027,61.773 380.366,61.924 380.345 C 63.187 380.165,64.400 380.486,64.400 381.000 C 64.400 381.330,64.627 381.600,64.904 381.600 C 65.181 381.600,65.632 381.960,65.907 382.400 C 66.226 382.910,66.840 383.200,67.603 383.200 C 68.400 383.200,68.800 383.400,68.800 383.800 C 68.800 384.219,69.222 384.400,70.200 384.400 C 71.333 384.400,71.600 384.552,71.600 385.200 C 71.600 385.848,71.867 386.000,73.000 386.000 C 74.133 386.000,74.400 386.152,74.400 386.800 C 74.400 387.240,74.535 387.579,74.700 387.553 C 75.525 387.422,76.000 387.659,76.000 388.200 C 76.000 388.619,76.422 388.800,77.400 388.800 C 78.533 388.800,78.800 388.952,78.800 389.600 C 78.800 390.248,79.067 390.400,80.200 390.400 C 81.203 390.400,81.600 390.577,81.600 391.025 C 81.600 391.381,81.902 391.620,82.300 391.579 C 83.877 391.419,84.400 391.623,84.400 392.400 C 84.400 392.933,84.667 393.200,85.200 393.200 C 85.640 393.200,86.000 393.451,86.000 393.757 C 86.000 394.369,86.841 394.800,88.033 394.800 C 88.455 394.800,88.800 395.070,88.800 395.400 C 88.800 395.815,89.217 396.000,90.153 396.000 C 91.170 396.000,91.559 396.199,91.716 396.800 C 91.868 397.383,92.262 397.600,93.163 397.600 C 93.843 397.600,94.400 397.784,94.400 398.010 C 94.400 398.235,94.851 398.591,95.403 398.801 C 95.955 399.011,96.360 399.411,96.303 399.691 C 96.237 400.015,96.749 400.245,97.712 400.325 C 98.870 400.421,99.198 400.607,99.112 401.125 C 99.026 401.641,99.352 401.829,100.500 401.924 C 101.481 402.005,102.000 402.247,102.000 402.624 C 102.000 403.016,102.448 403.200,103.400 403.200 C 104.533 403.200,104.800 403.352,104.800 404.000 C 104.800 404.452,105.067 404.800,105.413 404.800 C 105.749 404.800,106.129 405.070,106.255 405.400 C 106.382 405.730,106.812 406.000,107.210 406.000 C 108.362 406.000,109.200 406.439,109.200 407.043 C 109.200 407.413,109.670 407.600,110.600 407.600 C 111.614 407.600,112.000 407.776,112.000 408.237 C 112.000 408.588,112.360 408.969,112.800 409.084 C 113.240 409.199,113.600 409.542,113.600 409.847 C 113.600 410.212,114.075 410.400,115.000 410.400 C 116.133 410.400,116.400 410.552,116.400 411.200 C 116.400 411.845,116.667 412.000,117.773 412.000 C 118.790 412.000,119.211 412.205,119.397 412.792 C 119.536 413.227,119.773 413.566,119.924 413.545 C 121.035 413.386,122.000 413.691,122.000 414.200 C 122.000 414.566,122.373 414.800,122.956 414.800 C 123.620 414.800,123.894 415.013,123.856 415.500 C 123.815 416.012,124.149 416.234,125.100 416.325 C 125.905 416.403,126.400 416.669,126.400 417.025 C 126.400 417.415,126.850 417.600,127.800 417.600 C 128.933 417.600,129.200 417.752,129.200 418.400 C 129.200 418.840,129.335 419.179,129.500 419.153 C 130.503 418.994,132.415 419.252,132.247 419.524 C 131.902 420.082,134.280 422.000,135.317 422.000 C 135.970 422.000,136.378 422.272,136.516 422.800 C 136.678 423.418,137.062 423.600,138.205 423.600 C 139.357 423.600,139.634 423.733,139.455 424.200 C 139.275 424.671,139.566 424.800,140.813 424.800 C 142.133 424.800,142.400 424.934,142.400 425.600 C 142.400 426.141,142.667 426.400,143.224 426.400 C 143.677 426.400,143.942 426.571,143.812 426.780 C 143.525 427.244,145.067 428.129,145.595 427.803 C 145.803 427.674,146.203 427.936,146.483 428.384 C 146.826 428.934,147.417 429.200,148.296 429.200 C 149.333 429.200,149.600 429.364,149.600 430.000 C 149.600 430.440,149.851 430.800,150.157 430.800 C 150.464 430.800,150.818 431.070,150.945 431.400 C 151.089 431.777,151.701 432.000,152.587 432.000 C 153.733 432.000,154.000 432.151,154.000 432.800 C 154.000 433.448,154.267 433.600,155.400 433.600 C 156.549 433.600,156.800 433.748,156.800 434.429 C 156.800 435.043,157.033 435.238,157.700 435.184 C 159.234 435.060,159.600 435.179,159.600 435.800 C 159.600 436.130,159.939 436.400,160.353 436.400 C 160.770 436.400,161.200 436.757,161.316 437.200 C 161.468 437.783,161.862 438.000,162.763 438.000 C 163.554 438.000,164.000 438.201,164.000 438.557 C 164.000 439.169,164.841 439.600,166.033 439.600 C 166.455 439.600,166.800 439.870,166.800 440.200 C 166.800 440.619,167.222 440.800,168.200 440.800 C 169.333 440.800,169.600 440.952,169.600 441.600 C 169.600 442.133,169.867 442.400,170.400 442.400 C 170.844 442.400,171.200 442.667,171.200 443.000 C 171.200 443.419,171.622 443.600,172.600 443.600 C 173.733 443.600,174.000 443.752,174.000 444.400 C 174.000 445.048,174.267 445.200,175.400 445.200 C 176.391 445.200,176.800 445.379,176.800 445.813 C 176.800 446.149,177.115 446.541,177.500 446.682 C 177.885 446.824,178.344 447.178,178.520 447.470 C 178.696 447.761,179.359 448.000,179.993 448.000 C 180.783 448.000,181.224 448.244,181.392 448.776 C 181.555 449.290,182.072 449.594,182.919 449.676 C 183.683 449.750,184.160 450.002,184.100 450.300 C 184.033 450.633,184.533 450.800,185.600 450.800 C 186.771 450.800,187.200 450.965,187.200 451.413 C 187.200 451.750,187.573 452.164,188.030 452.333 C 188.486 452.501,188.801 452.798,188.730 452.991 C 188.658 453.184,189.129 453.484,189.776 453.657 C 190.423 453.830,191.107 454.248,191.296 454.586 C 191.533 455.009,192.255 455.200,193.620 455.200 C 194.709 455.200,195.600 455.380,195.600 455.600 C 195.600 455.837,197.067 456.000,199.200 456.000 C 201.333 456.000,202.800 455.837,202.800 455.600 C 202.800 455.380,203.700 455.200,204.800 455.200 C 206.311 455.200,206.800 455.053,206.800 454.600 C 206.800 454.048,207.762 453.791,209.131 453.977 C 209.423 454.017,209.759 453.678,209.878 453.225 C 209.999 452.760,210.422 452.400,210.847 452.400 C 211.333 452.400,211.600 452.117,211.600 451.600 C 211.600 450.952,211.867 450.800,213.000 450.800 C 213.978 450.800,214.400 450.619,214.400 450.200 C 214.400 449.681,215.655 449.356,216.900 449.553 C 217.065 449.579,217.200 449.240,217.200 448.800 C 217.200 448.152,217.467 448.000,218.600 448.000 C 219.578 448.000,220.000 447.819,220.000 447.400 C 220.000 447.067,220.356 446.800,220.800 446.800 C 221.333 446.800,221.600 446.533,221.600 446.000 C 221.600 445.352,221.867 445.200,223.000 445.200 C 224.133 445.200,224.400 445.048,224.400 444.400 C 224.400 443.751,224.667 443.600,225.813 443.600 C 226.699 443.600,227.311 443.377,227.455 443.000 C 227.582 442.670,228.115 442.400,228.639 442.400 C 229.164 442.400,229.818 442.040,230.093 441.600 C 230.368 441.160,230.819 440.800,231.096 440.800 C 231.373 440.800,231.600 440.530,231.600 440.200 C 231.600 439.840,232.000 439.580,232.600 439.550 C 234.452 439.457,234.600 439.402,234.600 438.800 C 234.600 438.411,235.073 438.155,235.945 438.071 C 236.871 437.983,237.353 437.702,237.492 437.171 C 237.603 436.747,237.942 436.400,238.247 436.400 C 238.551 436.400,238.800 436.130,238.800 435.800 C 238.800 435.248,239.762 434.991,241.131 435.177 C 241.423 435.217,241.759 434.878,241.878 434.425 C 242.042 433.797,242.416 433.600,243.447 433.600 C 244.533 433.600,244.800 433.442,244.800 432.800 C 244.800 432.152,245.067 432.000,246.200 432.000 C 247.178 432.000,247.600 431.819,247.600 431.400 C 247.600 431.067,247.956 430.800,248.400 430.800 C 248.933 430.800,249.200 430.533,249.200 430.000 C 249.200 429.352,249.467 429.200,250.600 429.200 C 251.578 429.200,252.000 429.019,252.000 428.600 C 252.000 428.037,252.703 427.811,253.931 427.977 C 254.223 428.017,254.559 427.678,254.678 427.225 C 254.842 426.597,255.216 426.400,256.247 426.400 C 257.333 426.400,257.600 426.242,257.600 425.600 C 257.600 425.067,257.867 424.800,258.400 424.800 C 258.844 424.800,259.200 424.533,259.200 424.200 C 259.200 423.781,259.622 423.600,260.600 423.600 C 261.733 423.600,262.000 423.448,262.000 422.800 C 262.000 422.148,262.267 422.000,263.443 422.000 C 264.561 422.000,264.834 421.865,264.655 421.400 C 264.489 420.967,264.699 420.800,265.413 420.800 C 266.133 420.800,266.400 420.584,266.400 420.000 C 266.400 419.352,266.667 419.200,267.800 419.200 C 268.919 419.200,269.200 419.044,269.200 418.424 C 269.200 417.816,269.525 417.621,270.700 417.524 C 271.638 417.447,272.163 417.213,272.100 416.900 C 272.038 416.589,272.453 416.400,273.197 416.400 C 273.960 416.400,274.574 416.110,274.893 415.600 C 275.168 415.160,275.619 414.800,275.896 414.800 C 276.173 414.800,276.400 414.530,276.400 414.200 C 276.400 413.840,276.800 413.580,277.400 413.550 C 279.156 413.462,279.402 413.374,279.296 412.871 C 279.189 412.361,279.431 412.235,281.300 411.826 C 281.905 411.693,282.400 411.318,282.400 410.992 C 282.400 410.599,282.808 410.400,283.613 410.400 C 284.321 410.400,284.921 410.151,285.055 409.800 C 285.182 409.470,285.524 409.200,285.816 409.200 C 286.107 409.200,286.460 408.840,286.600 408.400 C 286.789 407.805,287.205 407.600,288.227 407.600 C 289.181 407.600,289.600 407.417,289.600 407.000 C 289.600 406.670,289.825 406.379,290.100 406.354 C 290.375 406.328,290.780 406.266,291.000 406.215 C 291.220 406.164,291.625 406.094,291.900 406.061 C 292.175 406.027,292.400 405.730,292.400 405.400 C 292.400 405.003,292.797 404.800,293.576 404.800 C 294.907 404.800,295.582 404.088,294.751 403.561 C 294.371 403.321,294.604 403.210,295.500 403.206 C 296.386 403.202,296.800 403.009,296.800 402.600 C 296.800 402.203,297.197 402.000,297.973 402.000 C 298.795 402.000,299.222 401.760,299.400 401.200 C 299.589 400.605,300.005 400.400,301.027 400.400 C 302.133 400.400,302.400 400.245,302.400 399.600 C 302.400 399.067,302.667 398.800,303.200 398.800 C 303.644 398.800,304.000 398.533,304.000 398.200 C 304.000 397.781,304.422 397.600,305.400 397.600 C 306.533 397.600,306.800 397.448,306.800 396.800 C 306.800 396.072,307.836 395.721,309.300 395.953 C 309.465 395.979,309.600 395.730,309.600 395.400 C 309.600 395.070,309.945 394.800,310.367 394.800 C 311.559 394.800,312.400 394.369,312.400 393.757 C 312.400 393.451,312.760 393.200,313.200 393.200 C 313.733 393.200,314.000 392.933,314.000 392.400 C 314.000 391.752,314.267 391.600,315.400 391.600 C 316.378 391.600,316.800 391.419,316.800 391.000 C 316.800 390.583,317.219 390.400,318.173 390.400 C 319.195 390.400,319.611 390.195,319.800 389.600 C 319.966 389.076,320.405 388.800,321.071 388.800 C 322.140 388.800,323.981 387.351,323.993 386.500 C 323.997 386.194,324.558 386.000,325.437 386.000 C 326.538 386.000,326.924 385.813,327.084 385.200 C 327.275 384.470,328.096 384.188,329.500 384.370 C 329.775 384.406,330.000 384.157,330.000 383.818 C 330.000 383.240,330.694 383.009,331.931 383.177 C 332.223 383.217,332.559 382.878,332.678 382.425 C 332.799 381.960,333.222 381.600,333.647 381.600 C 334.061 381.600,334.400 381.330,334.400 381.000 C 334.400 380.478,335.432 380.170,336.534 380.364 C 336.718 380.396,336.964 380.058,337.081 379.611 C 337.242 378.998,337.623 378.800,338.647 378.800 C 339.733 378.800,340.000 378.642,340.000 378.000 C 340.000 377.352,340.267 377.200,341.400 377.200 C 342.325 377.200,342.800 377.012,342.800 376.647 C 342.800 376.342,343.160 375.999,343.600 375.884 C 344.040 375.769,344.400 375.388,344.400 375.037 C 344.400 374.576,344.786 374.400,345.800 374.400 C 346.778 374.400,347.200 374.219,347.200 373.800 C 347.200 373.396,347.604 373.200,348.437 373.200 C 349.338 373.200,349.732 372.983,349.884 372.400 C 350.041 371.799,350.430 371.600,351.447 371.600 C 352.848 371.600,353.119 371.279,352.357 370.517 C 352.034 370.194,352.061 370.082,352.457 370.100 C 353.817 370.165,354.400 369.955,354.400 369.400 C 354.400 369.014,354.792 368.798,355.500 368.794 C 356.748 368.787,357.734 368.284,357.534 367.755 C 357.460 367.560,358.005 367.342,358.745 367.271 C 359.682 367.182,360.152 366.903,360.296 366.355 C 360.409 365.921,360.794 365.595,361.151 365.630 C 362.569 365.766,363.200 365.573,363.200 365.000 C 363.200 364.670,363.458 364.400,363.773 364.400 C 364.088 364.400,364.460 364.040,364.600 363.600 C 364.789 363.005,365.205 362.800,366.227 362.800 C 367.181 362.800,367.600 362.617,367.600 362.200 C 367.600 361.870,367.945 361.600,368.367 361.600 C 369.559 361.600,370.400 361.169,370.400 360.557 C 370.400 360.251,370.760 360.000,371.200 360.000 C 371.733 360.000,372.000 359.733,372.000 359.200 C 372.000 358.552,372.267 358.400,373.400 358.400 C 374.378 358.400,374.800 358.219,374.800 357.800 C 374.800 357.381,375.222 357.200,376.200 357.200 C 377.333 357.200,377.600 357.048,377.600 356.400 C 377.600 355.752,377.867 355.600,379.000 355.600 C 379.978 355.600,380.400 355.419,380.400 355.000 C 380.400 354.667,380.756 354.400,381.200 354.400 C 381.733 354.400,382.000 354.133,382.000 353.600 C 382.000 352.952,382.267 352.800,383.400 352.800 C 384.533 352.800,384.800 352.648,384.800 352.000 C 384.800 351.352,385.067 351.200,386.200 351.200 C 387.178 351.200,387.600 351.019,387.600 350.600 C 387.600 350.037,388.303 349.811,389.531 349.977 C 389.823 350.017,390.159 349.678,390.278 349.225 C 390.399 348.760,390.822 348.400,391.247 348.400 C 391.661 348.400,392.000 348.130,392.000 347.800 C 392.000 347.281,393.255 346.956,394.500 347.153 C 394.665 347.179,394.800 346.840,394.800 346.400 C 394.800 345.867,395.067 345.600,395.600 345.600 C 396.133 345.600,396.400 345.333,396.400 344.800 C 396.400 344.267,396.667 344.000,397.200 344.000 C 397.640 344.000,397.979 343.865,397.953 343.700 C 397.756 342.455,398.081 341.200,398.600 341.200 C 399.514 341.200,399.514 113.695,398.600 113.345 C 398.270 113.218,398.000 112.864,398.000 112.557 C 398.000 112.251,397.640 112.000,397.200 112.000 C 396.667 112.000,396.400 111.733,396.400 111.200 C 396.400 110.683,396.133 110.400,395.647 110.400 C 395.232 110.400,394.808 110.073,394.703 109.673 C 394.564 109.139,394.180 108.969,393.257 109.033 C 392.258 109.102,392.000 108.964,392.000 108.360 C 392.000 107.882,391.720 107.600,391.247 107.600 C 390.826 107.600,390.400 107.241,390.281 106.789 C 390.164 106.342,389.918 106.004,389.734 106.036 C 388.632 106.230,387.600 105.922,387.600 105.400 C 387.600 104.981,387.178 104.800,386.200 104.800 C 385.067 104.800,384.800 104.648,384.800 104.000 C 384.800 103.352,384.533 103.200,383.400 103.200 C 382.422 103.200,382.000 103.019,382.000 102.600 C 382.000 102.059,381.525 101.822,380.700 101.953 C 380.535 101.979,380.400 101.640,380.400 101.200 C 380.400 100.552,380.133 100.400,379.000 100.400 C 378.070 100.400,377.600 100.213,377.600 99.843 C 377.600 99.231,376.759 98.800,375.567 98.800 C 375.145 98.800,374.800 98.530,374.800 98.200 C 374.800 97.783,374.381 97.600,373.427 97.600 C 372.405 97.600,371.989 97.395,371.800 96.800 C 371.660 96.360,371.288 96.000,370.973 96.000 C 370.658 96.000,370.400 95.749,370.400 95.443 C 370.400 94.749,369.526 94.390,368.494 94.660 C 367.944 94.803,367.648 94.625,367.500 94.061 C 367.352 93.495,366.892 93.219,365.945 93.129 C 365.073 93.045,364.600 92.789,364.600 92.400 C 364.600 91.995,364.111 91.760,363.100 91.676 C 362.275 91.608,361.600 91.391,361.600 91.194 C 361.600 90.458,359.528 88.800,358.609 88.800 C 358.005 88.800,357.560 88.506,357.400 88.000 C 357.211 87.405,356.795 87.200,355.773 87.200 C 354.819 87.200,354.400 87.017,354.400 86.600 C 354.400 86.181,353.978 86.000,353.000 86.000 C 351.867 86.000,351.600 85.848,351.600 85.200 C 351.600 84.667,351.333 84.400,350.800 84.400 C 350.356 84.400,350.000 84.133,350.000 83.800 C 350.000 83.254,349.052 82.995,347.700 83.170 C 347.425 83.206,347.200 82.867,347.200 82.418 C 347.200 81.750,346.943 81.600,345.800 81.600 C 344.667 81.600,344.400 81.448,344.400 80.800 C 344.400 80.152,344.133 80.000,343.000 80.000 C 342.022 80.000,341.600 79.819,341.600 79.400 C 341.600 79.070,341.261 78.800,340.847 78.800 C 340.430 78.800,340.000 78.443,339.884 78.000 C 339.734 77.426,339.338 77.200,338.484 77.200 C 337.656 77.200,337.234 76.971,337.097 76.449 C 336.957 75.912,336.601 75.732,335.846 75.815 C 335.135 75.893,334.657 75.681,334.381 75.165 C 334.156 74.744,333.729 74.400,333.433 74.400 C 333.136 74.400,332.799 74.040,332.684 73.600 C 332.532 73.017,332.138 72.800,331.237 72.800 C 330.404 72.800,330.000 72.604,330.000 72.200 C 330.000 71.785,329.583 71.600,328.647 71.600 C 327.630 71.600,327.241 71.401,327.084 70.800 C 326.924 70.187,326.538 70.000,325.437 70.000 C 324.253 70.000,324.000 69.855,324.000 69.176 C 324.000 68.723,323.829 68.458,323.620 68.588 C 323.411 68.717,323.045 68.457,322.806 68.011 C 322.523 67.483,321.968 67.200,321.213 67.200 C 320.405 67.200,319.977 66.958,319.800 66.400 C 319.611 65.805,319.195 65.600,318.173 65.600 C 317.219 65.600,316.800 65.417,316.800 65.000 C 316.800 64.581,316.378 64.400,315.400 64.400 C 314.267 64.400,314.000 64.248,314.000 63.600 C 314.000 63.067,313.733 62.800,313.200 62.800 C 312.756 62.800,312.400 62.533,312.400 62.200 C 312.400 61.870,312.175 61.579,311.900 61.554 C 311.625 61.528,311.220 61.466,311.000 61.415 C 310.780 61.364,310.375 61.294,310.100 61.261 C 309.825 61.227,309.600 60.922,309.600 60.582 C 309.600 60.243,309.375 59.994,309.100 60.030 C 307.662 60.217,306.875 59.932,306.671 59.151 C 306.491 58.463,306.217 58.336,305.225 58.482 C 304.240 58.626,304.000 58.518,304.000 57.931 C 304.000 57.467,303.708 57.200,303.200 57.200 C 302.667 57.200,302.400 56.933,302.400 56.400 C 302.400 55.752,302.133 55.600,301.000 55.600 C 300.071 55.600,299.600 55.413,299.600 55.043 C 299.600 54.442,297.806 53.825,297.182 54.211 C 296.972 54.341,296.800 54.056,296.800 53.577 C 296.800 52.912,296.617 52.755,296.022 52.910 C 295.451 53.059,295.212 52.886,295.122 52.257 C 295.055 51.786,294.775 51.377,294.500 51.350 C 294.225 51.323,293.640 51.278,293.200 51.250 C 292.760 51.223,292.400 50.930,292.400 50.600 C 292.400 50.054,291.452 49.795,290.100 49.970 C 289.825 50.006,289.600 49.667,289.600 49.218 C 289.600 48.555,289.343 48.400,288.247 48.400 C 287.230 48.400,286.841 48.201,286.684 47.600 C 286.569 47.160,286.207 46.800,285.880 46.800 C 285.553 46.800,285.182 46.530,285.055 46.200 C 284.924 45.857,284.327 45.600,283.659 45.600 C 282.844 45.600,282.433 45.368,282.292 44.829 C 282.153 44.298,281.671 44.017,280.745 43.929 C 280.005 43.858,279.460 43.640,279.534 43.445 C 279.750 42.872,278.736 42.446,277.523 42.600 C 276.632 42.712,276.400 42.583,276.400 41.971 C 276.400 41.547,276.173 41.200,275.896 41.200 C 275.619 41.200,275.151 40.814,274.856 40.341 C 274.561 39.869,274.203 39.655,274.060 39.866 C 273.900 40.102,273.415 40.050,272.800 39.731 C 272.250 39.445,271.980 39.206,272.200 39.200 C 273.125 39.172,271.304 38.412,270.300 38.406 C 269.469 38.401,269.200 38.205,269.200 37.600 C 269.200 36.952,268.933 36.800,267.800 36.800 C 266.822 36.800,266.400 36.619,266.400 36.200 C 266.400 35.659,265.925 35.422,265.100 35.553 C 264.935 35.579,264.800 35.240,264.800 34.800 C 264.800 34.152,264.533 34.000,263.400 34.000 C 262.267 34.000,262.000 33.848,262.000 33.200 C 262.000 32.552,261.733 32.400,260.600 32.400 C 259.622 32.400,259.200 32.219,259.200 31.800 C 259.200 31.467,258.844 31.200,258.400 31.200 C 257.867 31.200,257.600 30.933,257.600 30.400 C 257.600 29.758,257.333 29.600,256.247 29.600 C 255.232 29.600,254.841 29.401,254.685 28.803 C 254.522 28.180,254.208 28.038,253.238 28.151 C 252.244 28.267,252.000 28.148,252.000 27.548 C 252.000 26.960,251.701 26.800,250.600 26.800 C 249.467 26.800,249.200 26.648,249.200 26.000 C 249.200 25.467,248.933 25.200,248.400 25.200 C 247.956 25.200,247.600 24.933,247.600 24.600 C 247.600 24.181,247.178 24.000,246.200 24.000 C 245.057 24.000,244.800 23.850,244.800 23.182 C 244.800 22.733,244.575 22.394,244.300 22.430 C 242.834 22.620,242.076 22.333,241.860 21.507 C 241.689 20.855,241.507 20.733,241.184 21.056 C 240.640 21.600,238.808 20.865,238.803 20.100 C 238.801 19.825,238.543 19.600,238.229 19.600 C 237.915 19.600,237.598 19.285,237.524 18.901 C 237.450 18.516,237.122 18.184,236.795 18.162 C 236.468 18.140,235.801 18.094,235.313 18.061 C 234.700 18.019,234.496 17.814,234.655 17.400 C 234.823 16.964,234.609 16.800,233.876 16.800 C 232.454 16.800,231.600 16.409,231.600 15.757 C 231.600 15.451,231.373 15.200,231.096 15.200 C 230.819 15.200,230.368 14.840,230.093 14.400 C 229.818 13.960,229.164 13.600,228.639 13.600 C 228.115 13.600,227.582 13.330,227.455 13.000 C 227.311 12.623,226.699 12.400,225.813 12.400 C 224.667 12.400,224.400 12.249,224.400 11.600 C 224.400 10.958,224.133 10.800,223.047 10.800 C 222.030 10.800,221.641 10.601,221.484 10.000 C 221.369 9.560,220.988 9.200,220.637 9.200 C 220.287 9.200,220.000 8.930,220.000 8.600 C 220.000 8.185,219.583 8.000,218.647 8.000 C 217.630 8.000,217.241 7.801,217.084 7.200 C 216.932 6.617,216.538 6.400,215.637 6.400 C 214.804 6.400,214.400 6.204,214.400 5.800 C 214.400 5.381,213.978 5.200,213.000 5.200 C 211.867 5.200,211.600 5.048,211.600 4.400 C 211.600 3.867,211.333 3.600,210.800 3.600 C 210.356 3.600,210.000 3.333,210.000 3.000 C 210.000 2.670,209.655 2.400,209.233 2.400 C 208.041 2.400,207.200 1.969,207.200 1.357 C 207.200 0.987,206.730 0.800,205.800 0.800 C 205.030 0.800,204.400 0.620,204.400 0.400 C 204.400 0.158,202.667 0.000,200.000 0.000 C 197.333 0.000,195.600 0.158,195.600 0.400 M231.891 120.976 C 231.873 122.393,231.755 123.542,231.629 123.529 C 230.544 123.417,230.400 123.753,230.400 126.400 C 230.400 128.933,230.324 129.200,229.600 129.200 C 228.876 129.200,228.800 129.467,228.800 132.013 C 228.800 134.144,228.655 134.881,228.200 135.055 C 227.732 135.235,227.600 136.029,227.600 138.656 C 227.600 141.785,227.536 142.050,226.700 142.359 C 226.205 142.542,225.845 142.806,225.900 142.946 C 226.373 144.148,225.923 147.927,225.288 148.093 C 224.707 148.245,224.586 148.678,224.629 150.440 C 224.683 152.672,224.140 154.533,223.542 154.164 C 223.354 154.048,223.200 155.324,223.200 157.000 C 223.200 158.930,223.053 159.957,222.800 159.800 C 222.580 159.664,222.400 159.754,222.400 160.000 C 222.400 160.246,222.216 160.333,221.990 160.194 C 221.765 160.055,221.606 160.089,221.637 160.270 C 221.971 162.191,221.521 166.800,221.000 166.800 C 220.524 166.800,220.400 167.378,220.400 169.600 C 220.400 172.133,220.324 172.400,219.600 172.400 C 218.872 172.400,218.800 172.667,218.800 175.353 C 218.800 177.853,218.690 178.335,218.085 178.494 C 217.485 178.651,217.382 179.081,217.441 181.189 C 217.501 183.346,217.405 183.726,216.756 183.896 C 216.108 184.065,216.000 184.483,216.000 186.820 C 216.000 189.208,215.899 189.578,215.188 189.804 C 213.960 190.194,213.999 205.170,215.230 205.492 C 215.653 205.603,216.000 206.032,216.000 206.447 C 216.000 206.933,216.283 207.200,216.800 207.200 C 217.244 207.200,217.600 207.467,217.600 207.800 C 217.600 208.130,217.870 208.400,218.200 208.400 C 218.533 208.400,218.800 208.756,218.800 209.200 C 218.800 209.733,219.067 210.000,219.600 210.000 C 220.052 210.000,220.400 210.267,220.400 210.613 C 220.400 210.949,220.670 211.329,221.000 211.455 C 221.330 211.582,221.600 211.936,221.600 212.243 C 221.600 212.549,221.960 212.800,222.400 212.800 C 222.840 212.800,223.200 213.064,223.200 213.386 C 223.200 213.708,223.565 214.167,224.011 214.406 C 224.457 214.645,224.717 215.011,224.588 215.220 C 224.458 215.429,224.723 215.600,225.176 215.600 C 225.733 215.600,226.000 215.859,226.000 216.400 C 226.000 216.933,226.267 217.200,226.800 217.200 C 227.347 217.200,227.600 217.467,227.600 218.043 C 227.600 218.628,227.784 218.815,228.200 218.655 C 228.608 218.499,228.800 218.677,228.800 219.213 C 228.800 219.733,229.071 220.000,229.600 220.000 C 230.133 220.000,230.400 220.267,230.400 220.800 C 230.400 221.240,230.651 221.600,230.957 221.600 C 231.264 221.600,231.618 221.870,231.745 222.200 C 231.871 222.530,232.251 222.800,232.587 222.800 C 232.933 222.800,233.200 223.148,233.200 223.600 C 233.200 224.124,233.467 224.400,233.973 224.400 C 234.398 224.400,234.861 224.763,235.002 225.206 C 235.143 225.649,235.425 225.908,235.629 225.782 C 235.833 225.656,236.000 225.923,236.000 226.376 C 236.000 226.933,236.259 227.200,236.800 227.200 C 237.333 227.200,237.600 227.467,237.600 228.000 C 237.600 228.533,237.867 228.800,238.400 228.800 C 238.844 228.800,239.200 229.067,239.200 229.400 C 239.200 229.730,239.470 230.000,239.800 230.000 C 240.133 230.000,240.400 230.356,240.400 230.800 C 240.400 231.324,240.667 231.600,241.173 231.600 C 241.598 231.600,242.059 231.956,242.197 232.392 C 242.336 232.827,242.663 233.142,242.924 233.092 C 243.186 233.041,243.375 233.315,243.344 233.700 C 243.310 234.139,243.570 234.400,244.044 234.400 C 244.533 234.400,244.800 234.682,244.800 235.200 C 244.800 235.733,245.067 236.000,245.600 236.000 C 246.068 236.000,246.400 236.267,246.400 236.643 C 246.400 237.050,246.620 237.201,247.000 237.055 C 247.546 236.846,247.790 237.260,247.636 238.134 C 247.604 238.318,247.942 238.564,248.389 238.681 C 248.835 238.798,249.200 239.130,249.200 239.420 C 249.200 239.709,249.560 240.060,250.000 240.200 C 250.440 240.340,250.800 240.712,250.800 241.027 C 250.800 241.342,251.070 241.600,251.400 241.600 C 251.730 241.600,252.000 241.887,252.000 242.237 C 252.000 242.588,252.360 242.969,252.800 243.084 C 253.240 243.199,253.600 243.542,253.600 243.847 C 253.600 244.209,254.068 244.400,254.953 244.400 C 256.503 244.400,256.785 245.080,256.362 247.800 C 256.225 248.680,256.067 249.130,256.009 248.800 C 255.952 248.470,255.927 248.065,255.953 247.900 C 256.030 247.412,255.776 247.545,254.658 248.581 C 254.076 249.120,253.600 249.750,253.600 249.981 C 253.600 250.211,253.313 250.400,252.963 250.400 C 252.612 250.400,252.231 250.760,252.116 251.200 C 252.001 251.640,251.658 252.000,251.353 252.000 C 250.853 252.000,250.591 252.801,250.775 253.768 C 250.814 253.970,250.593 253.927,250.286 253.671 C 249.978 253.416,249.608 253.325,249.463 253.470 C 249.090 253.844,249.136 254.487,249.519 254.250 C 249.695 254.142,250.100 254.218,250.419 254.420 C 250.873 254.707,250.803 254.789,250.100 254.794 C 249.437 254.798,249.198 255.037,249.194 255.700 C 249.189 256.403,249.107 256.473,248.820 256.019 C 248.618 255.700,248.542 255.295,248.650 255.119 C 248.887 254.736,248.244 254.690,247.870 255.063 C 247.725 255.208,247.830 255.603,248.103 255.940 C 248.433 256.347,248.444 256.460,248.136 256.275 C 247.212 255.722,246.400 256.455,246.400 257.843 C 246.400 258.933,246.243 259.200,245.600 259.200 C 245.156 259.200,244.800 259.467,244.800 259.800 C 244.800 260.140,244.441 260.400,243.973 260.400 C 243.328 260.400,243.202 260.576,243.400 261.200 C 243.598 261.824,243.472 262.000,242.827 262.000 C 242.359 262.000,242.000 262.260,242.000 262.600 C 242.000 263.141,241.525 263.378,240.700 263.247 C 240.535 263.221,240.400 263.539,240.400 263.953 C 240.400 264.386,240.037 264.802,239.548 264.929 C 238.979 265.078,238.776 265.359,238.935 265.776 C 239.102 266.211,238.936 266.400,238.387 266.400 C 237.954 266.400,237.600 266.670,237.600 267.000 C 237.600 267.333,237.244 267.600,236.800 267.600 C 236.267 267.600,236.000 267.867,236.000 268.400 C 236.000 268.840,235.751 269.200,235.447 269.200 C 235.142 269.200,234.793 269.583,234.671 270.052 C 234.522 270.621,234.241 270.824,233.824 270.665 C 233.389 270.498,233.200 270.664,233.200 271.213 C 233.200 271.729,232.929 272.000,232.413 272.000 C 231.864 272.000,231.698 272.189,231.865 272.624 C 232.024 273.041,231.821 273.322,231.252 273.471 C 230.783 273.593,230.400 273.942,230.400 274.247 C 230.400 274.551,230.040 274.800,229.600 274.800 C 229.067 274.800,228.800 275.067,228.800 275.600 C 228.800 276.044,228.533 276.400,228.200 276.400 C 227.857 276.400,227.600 276.760,227.600 277.243 C 227.600 277.849,227.421 278.017,226.963 277.841 C 226.538 277.678,226.256 277.864,226.116 278.398 C 226.001 278.839,225.585 279.200,225.191 279.200 C 224.672 279.200,224.532 279.420,224.684 280.000 C 224.842 280.603,224.696 280.800,224.093 280.800 C 223.613 280.800,223.204 281.141,223.071 281.652 C 222.922 282.221,222.641 282.424,222.224 282.265 C 221.789 282.098,221.600 282.264,221.600 282.813 C 221.600 283.246,221.330 283.600,221.000 283.600 C 220.667 283.600,220.400 283.956,220.400 284.400 C 220.400 284.933,220.133 285.200,219.600 285.200 C 219.156 285.200,218.800 285.467,218.800 285.800 C 218.800 286.140,218.441 286.400,217.973 286.400 C 217.328 286.400,217.202 286.576,217.400 287.200 C 217.598 287.824,217.472 288.000,216.827 288.000 C 216.258 288.000,216.000 288.258,216.000 288.827 C 216.000 289.472,215.824 289.598,215.200 289.400 C 214.576 289.202,214.400 289.328,214.400 289.973 C 214.400 290.428,214.142 290.800,213.827 290.800 C 213.512 290.800,213.140 291.160,213.000 291.600 C 212.860 292.040,212.488 292.400,212.173 292.400 C 211.858 292.400,211.600 292.649,211.600 292.953 C 211.600 293.258,211.240 293.601,210.800 293.716 C 210.360 293.831,210.000 294.212,210.000 294.563 C 210.000 294.913,209.730 295.200,209.400 295.200 C 209.067 295.200,208.800 295.556,208.800 296.000 C 208.800 296.440,208.665 296.779,208.500 296.753 C 207.693 296.625,207.200 296.853,207.200 297.353 C 207.200 297.658,206.817 298.007,206.348 298.129 C 205.779 298.278,205.576 298.559,205.735 298.976 C 205.902 299.411,205.736 299.600,205.187 299.600 C 204.754 299.600,204.400 299.870,204.400 300.200 C 204.400 300.533,204.044 300.800,203.600 300.800 C 203.067 300.800,202.800 301.067,202.800 301.600 C 202.800 302.040,202.551 302.400,202.247 302.400 C 201.942 302.400,201.598 302.765,201.481 303.211 C 201.364 303.658,201.028 303.973,200.734 303.911 C 200.441 303.850,200.246 304.029,200.303 304.309 C 200.360 304.589,199.944 304.993,199.379 305.208 C 198.808 305.425,198.469 305.788,198.616 306.026 C 198.762 306.262,198.504 306.552,198.040 306.674 C 197.578 306.794,197.200 307.142,197.200 307.447 C 197.200 307.751,196.840 308.000,196.400 308.000 C 195.867 308.000,195.600 308.267,195.600 308.800 C 195.600 309.244,195.333 309.600,195.000 309.600 C 194.670 309.600,194.400 309.954,194.400 310.387 C 194.400 310.936,194.211 311.102,193.776 310.935 C 193.359 310.776,193.078 310.979,192.929 311.548 C 192.807 312.017,192.458 312.400,192.153 312.400 C 191.653 312.400,191.425 312.893,191.553 313.700 C 191.579 313.865,191.240 314.000,190.800 314.000 C 190.356 314.000,190.000 314.267,190.000 314.600 C 190.000 314.933,189.644 315.200,189.200 315.200 C 188.667 315.200,188.400 315.467,188.400 316.000 C 188.400 316.444,188.133 316.800,187.800 316.800 C 187.470 316.800,187.200 317.087,187.200 317.437 C 187.200 317.788,186.840 318.169,186.400 318.284 C 185.960 318.399,185.600 318.742,185.600 319.047 C 185.600 319.351,185.246 319.600,184.813 319.600 C 184.264 319.600,184.098 319.789,184.265 320.224 C 184.423 320.636,184.227 320.920,183.689 321.061 C 183.241 321.178,182.778 321.641,182.661 322.089 C 182.520 322.627,182.236 322.823,181.824 322.665 C 181.389 322.498,181.200 322.664,181.200 323.213 C 181.200 323.646,180.942 324.000,180.627 324.000 C 180.312 324.000,179.940 324.360,179.800 324.800 C 179.660 325.240,179.288 325.600,178.973 325.600 C 178.658 325.600,178.400 325.870,178.400 326.200 C 178.400 326.533,178.044 326.800,177.600 326.800 C 177.067 326.800,176.800 327.067,176.800 327.600 C 176.800 328.044,176.533 328.400,176.200 328.400 C 175.870 328.400,175.600 328.750,175.600 329.177 C 175.600 329.750,175.380 329.912,174.763 329.793 C 174.151 329.675,173.988 329.792,174.156 330.229 C 174.305 330.619,174.033 330.959,173.368 331.212 C 172.804 331.427,172.469 331.789,172.616 332.026 C 172.762 332.262,172.504 332.552,172.040 332.674 C 171.578 332.794,171.200 333.044,171.200 333.228 C 171.200 333.670,169.262 335.600,168.819 335.600 C 168.629 335.600,168.412 334.610,168.337 333.399 C 168.220 331.518,168.302 331.199,168.900 331.199 C 169.499 331.200,169.600 330.801,169.600 328.427 C 169.600 326.015,169.703 325.621,170.392 325.403 C 170.827 325.264,171.166 325.027,171.145 324.876 C 170.869 322.943,171.285 319.600,171.800 319.600 C 172.288 319.600,172.400 318.939,172.400 316.047 C 172.400 312.830,172.476 312.473,173.200 312.284 C 173.904 312.100,174.000 311.738,174.000 309.282 C 174.000 306.867,174.095 306.496,174.700 306.544 C 175.460 306.605,175.486 306.503,175.554 303.100 C 175.589 301.343,175.742 300.800,176.200 300.800 C 176.676 300.800,176.800 300.225,176.800 298.027 C 176.800 295.605,176.901 295.222,177.600 295.000 C 178.317 294.773,178.400 294.395,178.400 291.373 C 178.400 288.641,178.514 288.000,179.000 288.000 C 179.480 288.000,179.600 287.400,179.600 285.000 C 179.600 282.267,179.671 282.000,180.400 282.000 C 181.123 282.000,181.200 281.733,181.200 279.227 C 181.200 276.805,181.301 276.422,182.000 276.200 C 182.699 275.978,182.800 275.595,182.800 273.173 C 182.800 270.975,182.924 270.400,183.400 270.400 C 183.875 270.400,184.000 269.827,184.000 267.647 C 184.000 265.230,184.098 264.868,184.800 264.684 C 185.561 264.485,185.600 264.138,185.600 257.600 C 185.600 251.062,185.561 250.715,184.800 250.516 C 184.360 250.401,184.000 249.973,184.000 249.566 C 184.000 249.072,183.800 248.902,183.400 249.055 C 182.984 249.215,182.800 249.028,182.800 248.443 C 182.800 247.867,182.547 247.600,182.000 247.600 C 181.467 247.600,181.200 247.333,181.200 246.800 C 181.200 246.267,180.933 246.000,180.400 246.000 C 179.956 246.000,179.600 245.733,179.600 245.400 C 179.600 245.070,179.330 244.800,179.000 244.800 C 178.459 244.800,178.222 244.325,178.353 243.500 C 178.379 243.335,178.040 243.200,177.600 243.200 C 177.067 243.200,176.800 242.933,176.800 242.400 C 176.800 241.859,176.533 241.600,175.976 241.600 C 175.495 241.600,175.262 241.423,175.417 241.173 C 175.562 240.938,175.303 240.647,174.840 240.526 C 174.362 240.401,174.000 239.982,174.000 239.553 C 174.000 239.067,173.717 238.800,173.200 238.800 C 172.756 238.800,172.400 238.533,172.400 238.200 C 172.400 237.870,172.151 237.600,171.847 237.600 C 171.542 237.600,171.199 237.240,171.084 236.800 C 170.969 236.360,170.588 236.000,170.237 236.000 C 169.887 236.000,169.600 235.724,169.600 235.387 C 169.600 235.051,169.285 234.659,168.900 234.518 C 168.515 234.376,168.054 234.018,167.875 233.722 C 167.697 233.426,167.382 233.288,167.175 233.415 C 166.828 233.630,166.624 233.059,166.764 232.266 C 166.796 232.082,166.458 231.836,166.011 231.719 C 165.565 231.602,165.200 231.258,165.200 230.953 C 165.200 230.633,164.788 230.400,164.224 230.400 C 163.687 230.400,163.137 230.222,163.003 230.005 C 162.862 229.777,163.024 229.711,163.384 229.849 C 163.838 230.023,163.941 229.913,163.762 229.445 C 163.626 229.090,163.285 228.800,163.004 228.800 C 162.723 228.800,162.399 228.440,162.284 228.000 C 162.132 227.417,161.738 227.200,160.837 227.200 C 160.004 227.200,159.600 227.004,159.600 226.600 C 159.600 226.267,159.244 226.000,158.800 226.000 C 158.267 226.000,158.000 225.733,158.000 225.200 C 158.000 224.756,157.733 224.400,157.400 224.400 C 157.070 224.400,156.800 224.142,156.800 223.827 C 156.800 223.512,156.440 223.140,156.000 223.000 C 155.560 222.860,155.200 222.488,155.200 222.173 C 155.200 221.858,154.840 221.600,154.400 221.600 C 153.867 221.600,153.600 221.333,153.600 220.800 C 153.600 220.356,153.333 220.000,153.000 220.000 C 152.670 220.000,152.400 219.730,152.400 219.400 C 152.400 219.067,152.044 218.800,151.600 218.800 C 151.067 218.800,150.800 218.533,150.800 218.000 C 150.800 217.556,150.533 217.200,150.200 217.200 C 149.870 217.200,149.600 216.930,149.600 216.600 C 149.600 216.267,149.244 216.000,148.800 216.000 C 148.267 216.000,148.000 215.733,148.000 215.200 C 148.000 214.667,147.733 214.400,147.200 214.400 C 146.667 214.400,146.400 214.133,146.400 213.600 C 146.400 213.156,146.133 212.800,145.800 212.800 C 145.470 212.800,145.200 212.530,145.200 212.200 C 145.200 211.867,144.844 211.600,144.400 211.600 C 143.960 211.600,143.600 211.442,143.600 211.250 C 143.600 211.057,143.488 210.337,143.350 209.650 C 143.146 208.629,143.229 208.400,143.804 208.400 C 144.884 208.400,146.400 206.519,146.400 205.179 C 146.400 204.267,146.581 204.000,147.200 204.000 C 147.644 204.000,148.000 203.733,148.000 203.400 C 148.000 203.067,148.356 202.800,148.800 202.800 C 149.333 202.800,149.600 202.533,149.600 202.000 C 149.600 201.556,149.867 201.200,150.200 201.200 C 150.530 201.200,150.800 200.930,150.800 200.600 C 150.800 200.267,151.156 200.000,151.600 200.000 C 152.133 200.000,152.400 199.733,152.400 199.200 C 152.400 198.756,152.667 198.400,153.000 198.400 C 153.333 198.400,153.600 198.044,153.600 197.600 C 153.600 197.067,153.867 196.800,154.400 196.800 C 154.844 196.800,155.200 196.533,155.200 196.200 C 155.200 195.867,155.556 195.600,156.000 195.600 C 156.533 195.600,156.800 195.333,156.800 194.800 C 156.800 194.356,157.067 194.000,157.400 194.000 C 157.730 194.000,158.000 193.730,158.000 193.400 C 158.000 193.067,158.356 192.800,158.800 192.800 C 159.333 192.800,159.600 192.533,159.600 192.000 C 159.600 191.467,159.867 191.200,160.400 191.200 C 160.840 191.200,161.179 191.065,161.153 190.900 C 161.022 190.075,161.259 189.600,161.800 189.600 C 162.130 189.600,162.400 189.330,162.400 189.000 C 162.400 188.667,162.756 188.400,163.200 188.400 C 163.733 188.400,164.000 188.133,164.000 187.600 C 164.000 187.156,164.267 186.800,164.600 186.800 C 164.930 186.800,165.200 186.530,165.200 186.200 C 165.200 185.659,165.675 185.422,166.500 185.553 C 166.665 185.579,166.800 185.240,166.800 184.800 C 166.800 184.267,167.067 184.000,167.600 184.000 C 168.040 184.000,168.379 183.865,168.353 183.700 C 168.222 182.875,168.459 182.400,169.000 182.400 C 169.330 182.400,169.600 182.130,169.600 181.800 C 169.600 181.467,169.956 181.200,170.400 181.200 C 170.933 181.200,171.200 180.933,171.200 180.400 C 171.200 179.960,171.449 179.600,171.753 179.600 C 172.058 179.600,172.407 179.217,172.529 178.748 C 172.678 178.179,172.959 177.976,173.376 178.135 C 173.811 178.302,174.000 178.136,174.000 177.587 C 174.000 177.154,174.258 176.800,174.573 176.800 C 174.888 176.800,175.260 176.440,175.400 176.000 C 175.540 175.560,175.912 175.200,176.227 175.200 C 176.542 175.200,176.800 174.930,176.800 174.600 C 176.800 174.270,177.087 174.000,177.437 174.000 C 177.788 174.000,178.169 173.640,178.284 173.200 C 178.399 172.760,178.742 172.400,179.047 172.400 C 179.351 172.400,179.600 172.040,179.600 171.600 C 179.600 171.067,179.867 170.800,180.400 170.800 C 180.844 170.800,181.200 170.533,181.200 170.200 C 181.200 169.870,181.487 169.600,181.837 169.600 C 182.188 169.600,182.569 169.240,182.684 168.800 C 182.799 168.360,183.142 168.000,183.447 168.000 C 183.751 168.000,184.000 167.730,184.000 167.400 C 184.000 167.070,184.287 166.800,184.637 166.800 C 184.988 166.800,185.365 166.457,185.474 166.037 C 185.584 165.617,186.035 165.179,186.477 165.064 C 186.948 164.941,187.164 164.666,187.000 164.400 C 186.834 164.132,187.063 163.856,187.560 163.726 C 188.022 163.606,188.400 163.356,188.400 163.172 C 188.400 162.710,190.348 160.800,190.818 160.800 C 191.028 160.800,191.200 160.530,191.200 160.200 C 191.200 159.870,191.487 159.600,191.837 159.600 C 192.188 159.600,192.565 159.257,192.674 158.837 C 192.784 158.417,193.235 157.979,193.677 157.864 C 194.148 157.741,194.364 157.466,194.200 157.200 C 194.034 156.932,194.263 156.656,194.760 156.526 C 195.222 156.406,195.600 156.156,195.600 155.972 C 195.600 155.510,197.548 153.600,198.018 153.600 C 198.228 153.600,198.400 153.313,198.400 152.963 C 198.400 152.612,198.760 152.231,199.200 152.116 C 199.640 152.001,200.000 151.658,200.000 151.353 C 200.000 151.049,200.270 150.800,200.600 150.800 C 200.930 150.800,201.200 150.513,201.200 150.163 C 201.200 149.812,201.560 149.431,202.000 149.316 C 202.440 149.201,202.800 148.956,202.800 148.772 C 202.800 148.336,204.736 146.400,205.172 146.400 C 205.356 146.400,205.601 146.040,205.716 145.600 C 205.831 145.160,206.212 144.800,206.563 144.800 C 206.913 144.800,207.200 144.530,207.200 144.200 C 207.200 143.870,207.485 143.600,207.833 143.600 C 208.182 143.600,208.384 143.375,208.283 143.100 C 208.183 142.825,207.853 142.660,207.550 142.733 C 207.248 142.807,207.148 142.719,207.328 142.538 C 207.509 142.358,207.869 142.190,208.128 142.166 C 208.388 142.142,208.915 142.094,209.300 142.061 C 209.685 142.027,210.000 141.742,210.000 141.427 C 210.000 141.112,210.360 140.740,210.800 140.600 C 211.240 140.460,211.600 140.088,211.600 139.773 C 211.600 139.458,211.870 139.200,212.200 139.200 C 212.530 139.200,212.800 138.913,212.800 138.563 C 212.800 138.212,213.160 137.831,213.600 137.716 C 214.040 137.601,214.400 137.258,214.400 136.953 C 214.400 136.649,214.651 136.400,214.957 136.400 C 215.569 136.400,216.000 135.559,216.000 134.367 C 216.000 133.945,216.270 133.600,216.600 133.600 C 216.933 133.600,217.200 133.244,217.200 132.800 C 217.200 132.267,217.467 132.000,218.000 132.000 C 218.533 132.000,218.800 131.733,218.800 131.200 C 218.800 130.653,219.067 130.400,219.643 130.400 C 220.228 130.400,220.415 130.216,220.255 129.800 C 220.099 129.392,220.277 129.200,220.813 129.200 C 221.333 129.200,221.600 128.929,221.600 128.400 C 221.600 127.867,221.867 127.600,222.400 127.600 C 222.844 127.600,223.200 127.333,223.200 127.000 C 223.200 126.670,223.470 126.400,223.800 126.400 C 224.133 126.400,224.400 126.044,224.400 125.600 C 224.400 125.067,224.667 124.800,225.200 124.800 C 225.733 124.800,226.000 124.533,226.000 124.000 C 226.000 123.467,226.267 123.200,226.800 123.200 C 227.244 123.200,227.600 122.933,227.600 122.600 C 227.600 122.270,227.870 122.000,228.200 122.000 C 228.533 122.000,228.800 121.644,228.800 121.200 C 228.800 120.667,229.067 120.400,229.600 120.400 C 230.044 120.400,230.400 120.133,230.400 119.800 C 230.400 119.470,230.670 119.200,231.000 119.200 C 231.330 119.200,231.600 119.020,231.600 118.800 C 231.600 118.580,231.673 118.400,231.762 118.400 C 231.851 118.400,231.909 119.559,231.891 120.976 " stroke="none" fill="#7c2ce4" fill-rule="evenodd"></path><path id="path1" d="M255.693 248.367 C 255.957 248.715,256.225 249.075,256.287 249.167 C 256.349 249.258,256.400 248.973,256.400 248.533 C 256.400 248.093,256.133 247.733,255.806 247.733 C 255.329 247.733,255.307 247.858,255.693 248.367 M249.058 254.736 C 248.638 255.200,248.560 255.607,248.814 256.009 C 249.112 256.481,249.189 256.424,249.194 255.728 C 249.198 255.131,249.484 254.814,250.100 254.724 C 250.835 254.617,250.879 254.543,250.338 254.323 C 249.938 254.161,249.430 254.325,249.058 254.736 " stroke="none" fill="#802ce4" fill-rule="evenodd"></path><path id="path2" d="M255.693 248.367 C 255.957 248.715,256.225 249.075,256.287 249.167 C 256.349 249.258,256.400 248.973,256.400 248.533 C 256.400 248.093,256.133 247.733,255.806 247.733 C 255.329 247.733,255.307 247.858,255.693 248.367 M249.058 254.736 C 248.638 255.200,248.560 255.607,248.814 256.009 C 249.112 256.481,249.189 256.424,249.194 255.728 C 249.198 255.131,249.484 254.814,250.100 254.724 C 250.835 254.617,250.879 254.543,250.338 254.323 C 249.938 254.161,249.430 254.325,249.058 254.736 " stroke="none" fill="#802ce4" fill-rule="evenodd"></path><path id="path3" d="M255.693 248.367 C 255.957 248.715,256.225 249.075,256.287 249.167 C 256.349 249.258,256.400 248.973,256.400 248.533 C 256.400 248.093,256.133 247.733,255.806 247.733 C 255.329 247.733,255.307 247.858,255.693 248.367 M249.058 254.736 C 248.638 255.200,248.560 255.607,248.814 256.009 C 249.112 256.481,249.189 256.424,249.194 255.728 C 249.198 255.131,249.484 254.814,250.100 254.724 C 250.835 254.617,250.879 254.543,250.338 254.323 C 249.938 254.161,249.430 254.325,249.058 254.736 " stroke="none" fill="#802ce4" fill-rule="evenodd"></path><path id="path4" d="M255.693 248.367 C 255.957 248.715,256.225 249.075,256.287 249.167 C 256.349 249.258,256.400 248.973,256.400 248.533 C 256.400 248.093,256.133 247.733,255.806 247.733 C 255.329 247.733,255.307 247.858,255.693 248.367 M249.058 254.736 C 248.638 255.200,248.560 255.607,248.814 256.009 C 249.112 256.481,249.189 256.424,249.194 255.728 C 249.198 255.131,249.484 254.814,250.100 254.724 C 250.835 254.617,250.879 254.543,250.338 254.323 C 249.938 254.161,249.430 254.325,249.058 254.736 " stroke="none" fill="#802ce4" fill-rule="evenodd"></path><path id="path5" d="M255.693 248.367 C 255.957 248.715,256.225 249.075,256.287 249.167 C 256.349 249.258,256.400 248.973,256.400 248.533 C 256.400 248.093,256.133 247.733,255.806 247.733 C 255.329 247.733,255.307 247.858,255.693 248.367 M249.058 254.736 C 248.638 255.200,248.560 255.607,248.814 256.009 C 249.112 256.481,249.189 256.424,249.194 255.728 C 249.198 255.131,249.484 254.814,250.100 254.724 C 250.835 254.617,250.879 254.543,250.338 254.323 C 249.938 254.161,249.430 254.325,249.058 254.736 " stroke="none" fill="#802ce4" fill-rule="evenodd"></path><path id="path6" d="M255.693 248.367 C 255.957 248.715,256.225 249.075,256.287 249.167 C 256.349 249.258,256.400 248.973,256.400 248.533 C 256.400 248.093,256.133 247.733,255.806 247.733 C 255.329 247.733,255.307 247.858,255.693 248.367 M249.058 254.736 C 248.638 255.200,248.560 255.607,248.814 256.009 C 249.112 256.481,249.189 256.424,249.194 255.728 C 249.198 255.131,249.484 254.814,250.100 254.724 C 250.835 254.617,250.879 254.543,250.338 254.323 C 249.938 254.161,249.430 254.325,249.058 254.736 " stroke="none" fill="#802ce4" fill-rule="evenodd"></path><path id="path7" d="M255.693 248.367 C 255.957 248.715,256.225 249.075,256.287 249.167 C 256.349 249.258,256.400 248.973,256.400 248.533 C 256.400 248.093,256.133 247.733,255.806 247.733 C 255.329 247.733,255.307 247.858,255.693 248.367 M249.058 254.736 C 248.638 255.200,248.560 255.607,248.814 256.009 C 249.112 256.481,249.189 256.424,249.194 255.728 C 249.198 255.131,249.484 254.814,250.100 254.724 C 250.835 254.617,250.879 254.543,250.338 254.323 C 249.938 254.161,249.430 254.325,249.058 254.736 " stroke="none" fill="#802ce4" fill-rule="evenodd"></path><path id="path8" d="M255.693 248.367 C 255.957 248.715,256.225 249.075,256.287 249.167 C 256.349 249.258,256.400 248.973,256.400 248.533 C 256.400 248.093,256.133 247.733,255.806 247.733 C 255.329 247.733,255.307 247.858,255.693 248.367 M249.058 254.736 C 248.638 255.200,248.560 255.607,248.814 256.009 C 249.112 256.481,249.189 256.424,249.194 255.728 C 249.198 255.131,249.484 254.814,250.100 254.724 C 250.835 254.617,250.879 254.543,250.338 254.323 C 249.938 254.161,249.430 254.325,249.058 254.736 " stroke="none" fill="#802ce4" fill-rule="evenodd"></path></g></svg>