<?xml version="1.0" standalone="no"?>
<!DOCTYPE svg PUBLIC "-//W3C//DTD SVG 20010904//EN"
 "http://www.w3.org/TR/2001/REC-SVG-20010904/DTD/svg10.dtd">
<svg version="1.0" xmlns="http://www.w3.org/2000/svg"
 width="16.000000pt" height="16.000000pt" viewBox="0 0 16.000000 16.000000"
 preserveAspectRatio="xMidYMid meet">

<g transform="translate(0.000000,16.000000) scale(0.100000,-0.100000)"
fill="#000000" stroke="none">
<path d="M32 141 c-20 -12 -10 -46 14 -49 25 -4 40 24 23 44 -13 16 -19 17
-37 5z"/>
<path d="M97 103 c-10 -10 -8 -41 3 -48 17 -11 50 5 50 25 0 23 -37 40 -53 23z"/>
<path d="M23 54 c-3 -8 2 -23 11 -32 14 -15 18 -15 31 -1 9 9 13 23 9 32 -8
21 -43 22 -51 1z"/>
</g>
</svg>
